<?xml version="1.0" encoding="utf-8" standalone="no"?>
<!DOCTYPE svg PUBLIC "-//W3C//DTD SVG 1.1//EN"
  "http://www.w3.org/Graphics/SVG/1.1/DTD/svg11.dtd">
<svg xmlns:xlink="http://www.w3.org/1999/xlink" width="1152pt" height="432pt" viewBox="0 0 1152 432" xmlns="http://www.w3.org/2000/svg" version="1.1">
 <metadata>
  <rdf:RDF xmlns:dc="http://purl.org/dc/elements/1.1/" xmlns:cc="http://creativecommons.org/ns#" xmlns:rdf="http://www.w3.org/1999/02/22-rdf-syntax-ns#">
   <cc:Work>
    <dc:type rdf:resource="http://purl.org/dc/dcmitype/StillImage"/>
    <dc:date>2022-12-17T15:46:41.233360</dc:date>
    <dc:format>image/svg+xml</dc:format>
    <dc:creator>
     <cc:Agent>
      <dc:title>Matplotlib v3.5.1, https://matplotlib.org/</dc:title>
     </cc:Agent>
    </dc:creator>
   </cc:Work>
  </rdf:RDF>
 </metadata>
 <defs>
  <style type="text/css">*{stroke-linejoin: round; stroke-linecap: butt}</style>
 </defs>
 <g id="figure_1">
  <g id="patch_1">
   <path d="M 0 432 
L 1152 432 
L 1152 0 
L 0 0 
z
" style="fill: #ffffff"/>
  </g>
  <g id="axes_1">
   <g id="patch_2">
    <path d="M 53.5 343.64 
L 367.333333 343.64 
L 367.333333 66.8 
L 53.5 66.8 
z
" style="fill: #ffffff"/>
   </g>
   <g id="PolyCollection_1">
    <defs>
     <path id="m4a3f6be59e" d="M 67.765152 -89.914839 
L 67.765152 -88.36 
L 69.198835 -88.36 
L 70.632519 -88.36 
L 72.066202 -88.36 
L 73.499886 -88.36 
L 74.933569 -88.36 
L 76.367253 -88.36 
L 77.800937 -88.36 
L 79.23462 -88.36 
L 80.668304 -88.36 
L 82.101987 -88.36 
L 83.535671 -88.36 
L 84.969354 -88.36 
L 86.403038 -88.36 
L 87.836721 -88.36 
L 89.270405 -88.36 
L 90.704089 -88.36 
L 92.137772 -88.36 
L 93.571456 -88.36 
L 95.005139 -88.36 
L 96.438823 -88.36 
L 97.872506 -88.36 
L 99.30619 -88.36 
L 100.739874 -88.36 
L 102.173557 -88.36 
L 103.607241 -88.36 
L 105.040924 -88.36 
L 106.474608 -88.36 
L 107.908291 -88.36 
L 109.341975 -88.36 
L 110.775659 -88.36 
L 112.209342 -88.36 
L 113.643026 -88.36 
L 115.076709 -88.36 
L 116.510393 -88.36 
L 117.944076 -88.36 
L 119.37776 -88.36 
L 120.811444 -88.36 
L 122.245127 -88.36 
L 123.678811 -88.36 
L 125.112494 -88.36 
L 126.546178 -88.36 
L 127.979861 -88.36 
L 129.413545 -88.36 
L 130.847229 -88.36 
L 132.280912 -88.36 
L 133.714596 -88.36 
L 135.148279 -88.36 
L 136.581963 -88.36 
L 138.015646 -88.36 
L 139.44933 -88.36 
L 140.883014 -88.36 
L 142.316697 -88.36 
L 143.750381 -88.36 
L 145.184064 -88.36 
L 146.617748 -88.36 
L 148.051431 -88.36 
L 149.485115 -88.36 
L 150.918799 -88.36 
L 152.352482 -88.36 
L 153.786166 -88.36 
L 155.219849 -88.36 
L 156.653533 -88.36 
L 158.087216 -88.36 
L 159.5209 -88.36 
L 160.954584 -88.36 
L 162.388267 -88.36 
L 163.821951 -88.36 
L 165.255634 -88.36 
L 166.689318 -88.36 
L 168.123001 -88.36 
L 169.556685 -88.36 
L 170.990369 -88.36 
L 172.424052 -88.36 
L 173.857736 -88.36 
L 175.291419 -88.36 
L 176.725103 -88.36 
L 178.158786 -88.36 
L 179.59247 -88.36 
L 181.026153 -88.36 
L 182.459837 -88.36 
L 183.893521 -88.36 
L 185.327204 -88.36 
L 186.760888 -88.36 
L 188.194571 -88.36 
L 189.628255 -88.36 
L 191.061938 -88.36 
L 192.495622 -88.36 
L 193.929306 -88.36 
L 195.362989 -88.36 
L 196.796673 -88.36 
L 198.230356 -88.36 
L 199.66404 -88.36 
L 201.097723 -88.36 
L 202.531407 -88.36 
L 203.965091 -88.36 
L 205.398774 -88.36 
L 206.832458 -88.36 
L 208.266141 -88.36 
L 209.699825 -88.36 
L 211.133508 -88.36 
L 212.567192 -88.36 
L 214.000876 -88.36 
L 215.434559 -88.36 
L 216.868243 -88.36 
L 218.301926 -88.36 
L 219.73561 -88.36 
L 221.169293 -88.36 
L 222.602977 -88.36 
L 224.036661 -88.36 
L 225.470344 -88.36 
L 226.904028 -88.36 
L 228.337711 -88.36 
L 229.771395 -88.36 
L 231.205078 -88.36 
L 232.638762 -88.36 
L 234.072446 -88.36 
L 235.506129 -88.36 
L 236.939813 -88.36 
L 238.373496 -88.36 
L 239.80718 -88.36 
L 241.240863 -88.36 
L 242.674547 -88.36 
L 244.108231 -88.36 
L 245.541914 -88.36 
L 246.975598 -88.36 
L 248.409281 -88.36 
L 249.842965 -88.36 
L 251.276648 -88.36 
L 252.710332 -88.36 
L 254.144016 -88.36 
L 255.577699 -88.36 
L 257.011383 -88.36 
L 258.445066 -88.36 
L 259.87875 -88.36 
L 261.312433 -88.36 
L 262.746117 -88.36 
L 264.179801 -88.36 
L 265.613484 -88.36 
L 267.047168 -88.36 
L 268.480851 -88.36 
L 269.914535 -88.36 
L 271.348218 -88.36 
L 272.781902 -88.36 
L 274.215586 -88.36 
L 275.649269 -88.36 
L 277.082953 -88.36 
L 278.516636 -88.36 
L 279.95032 -88.36 
L 281.384003 -88.36 
L 282.817687 -88.36 
L 284.25137 -88.36 
L 285.685054 -88.36 
L 287.118738 -88.36 
L 288.552421 -88.36 
L 289.986105 -88.36 
L 291.419788 -88.36 
L 292.853472 -88.36 
L 294.287155 -88.36 
L 295.720839 -88.36 
L 297.154523 -88.36 
L 298.588206 -88.36 
L 300.02189 -88.36 
L 301.455573 -88.36 
L 302.889257 -88.36 
L 304.32294 -88.36 
L 305.756624 -88.36 
L 307.190308 -88.36 
L 308.623991 -88.36 
L 310.057675 -88.36 
L 311.491358 -88.36 
L 312.925042 -88.36 
L 314.358725 -88.36 
L 315.792409 -88.36 
L 317.226093 -88.36 
L 318.659776 -88.36 
L 320.09346 -88.36 
L 321.527143 -88.36 
L 322.960827 -88.36 
L 324.39451 -88.36 
L 325.828194 -88.36 
L 327.261878 -88.36 
L 328.695561 -88.36 
L 330.129245 -88.36 
L 331.562928 -88.36 
L 332.996612 -88.36 
L 334.430295 -88.36 
L 335.863979 -88.36 
L 337.297663 -88.36 
L 338.731346 -88.36 
L 340.16503 -88.36 
L 341.598713 -88.36 
L 343.032397 -88.36 
L 344.46608 -88.36 
L 345.899764 -88.36 
L 347.333448 -88.36 
L 348.767131 -88.36 
L 350.200815 -88.36 
L 351.634498 -88.36 
L 353.068182 -88.36 
L 353.068182 -88.370667 
L 353.068182 -88.370667 
L 351.634498 -88.376503 
L 350.200815 -88.385119 
L 348.767131 -88.39762 
L 347.333448 -88.415449 
L 345.899764 -88.440442 
L 344.46608 -88.474891 
L 343.032397 -88.521576 
L 341.598713 -88.5838 
L 340.16503 -88.665377 
L 338.731346 -88.770598 
L 337.297663 -88.904151 
L 335.863979 -89.071006 
L 334.430295 -89.27625 
L 332.996612 -89.524894 
L 331.562928 -89.821646 
L 330.129245 -90.170681 
L 328.695561 -90.575399 
L 327.261878 -91.038213 
L 325.828194 -91.560356 
L 324.39451 -92.141748 
L 322.960827 -92.780902 
L 321.527143 -93.474897 
L 320.09346 -94.219408 
L 318.659776 -95.008797 
L 317.226093 -95.836254 
L 315.792409 -96.694001 
L 314.358725 -97.57353 
L 312.925042 -98.465893 
L 311.491358 -99.362032 
L 310.057675 -100.253129 
L 308.623991 -101.130983 
L 307.190308 -101.988376 
L 305.756624 -102.819422 
L 304.32294 -103.61985 
L 302.889257 -104.387215 
L 301.455573 -105.120989 
L 300.02189 -105.822521 
L 298.588206 -106.494863 
L 297.154523 -107.142453 
L 295.720839 -107.770696 
L 294.287155 -108.385466 
L 292.853472 -108.992582 
L 291.419788 -109.597299 
L 289.986105 -110.203875 
L 288.552421 -110.815238 
L 287.118738 -111.432784 
L 285.685054 -112.056319 
L 284.25137 -112.684139 
L 282.817687 -113.313225 
L 281.384003 -113.939542 
L 279.95032 -114.558397 
L 278.516636 -115.164838 
L 277.082953 -115.754063 
L 275.649269 -116.321806 
L 274.215586 -116.864676 
L 272.781902 -117.380433 
L 271.348218 -117.868168 
L 269.914535 -118.328386 
L 268.480851 -118.762977 
L 267.047168 -119.175072 
L 265.613484 -119.568804 
L 264.179801 -119.94899 
L 262.746117 -120.32077 
L 261.312433 -120.689243 
L 259.87875 -121.05913 
L 258.445066 -121.434512 
L 257.011383 -121.818663 
L 255.577699 -122.213989 
L 254.144016 -122.622075 
L 252.710332 -123.043825 
L 251.276648 -123.479655 
L 249.842965 -123.929709 
L 248.409281 -124.394056 
L 246.975598 -124.872831 
L 245.541914 -125.366283 
L 244.108231 -125.874743 
L 242.674547 -126.39848 
L 241.240863 -126.937515 
L 239.80718 -127.491388 
L 238.373496 -128.05897 
L 236.939813 -128.638341 
L 235.506129 -129.226806 
L 234.072446 -129.821061 
L 232.638762 -130.417527 
L 231.205078 -131.012826 
L 229.771395 -131.604336 
L 228.337711 -132.190776 
L 226.904028 -132.772704 
L 225.470344 -133.352864 
L 224.036661 -133.936296 
L 222.602977 -134.530173 
L 221.169293 -135.143353 
L 219.73561 -135.785681 
L 218.301926 -136.467113 
L 216.868243 -137.196753 
L 215.434559 -137.981919 
L 214.000876 -138.82734 
L 212.567192 -139.734588 
L 211.133508 -140.701792 
L 209.699825 -141.72367 
L 208.266141 -142.791883 
L 206.832458 -143.895639 
L 205.398774 -145.022523 
L 203.965091 -146.159436 
L 202.531407 -147.293583 
L 201.097723 -148.413423 
L 199.66404 -149.509502 
L 198.230356 -150.575119 
L 196.796673 -151.606773 
L 195.362989 -152.604364 
L 193.929306 -153.571121 
L 192.495622 -154.513279 
L 191.061938 -155.439486 
L 189.628255 -156.360024 
L 188.194571 -157.285866 
L 186.760888 -158.227676 
L 185.327204 -159.194839 
L 183.893521 -160.194627 
L 182.459837 -161.231603 
L 181.026153 -162.30734 
L 179.59247 -163.420496 
L 178.158786 -164.567253 
L 176.725103 -165.742067 
L 175.291419 -166.938645 
L 173.857736 -168.15102 
L 172.424052 -169.374581 
L 170.990369 -170.606927 
L 169.556685 -171.848422 
L 168.123001 -173.102393 
L 166.689318 -174.374948 
L 165.255634 -175.674453 
L 163.821951 -177.010767 
L 162.388267 -178.394352 
L 160.954584 -179.835402 
L 159.5209 -181.343121 
L 158.087216 -182.925249 
L 156.653533 -184.58789 
L 155.219849 -186.335647 
L 153.786166 -188.172005 
L 152.352482 -190.099893 
L 150.918799 -192.12229 
L 149.485115 -194.242789 
L 148.051431 -196.466022 
L 146.617748 -198.797905 
L 145.184064 -201.245694 
L 143.750381 -203.817921 
L 142.316697 -206.52429 
L 140.883014 -209.375657 
L 139.44933 -212.384206 
L 138.015646 -215.563931 
L 136.581963 -218.931449 
L 135.148279 -222.507122 
L 133.714596 -226.316358 
L 132.280912 -230.39086 
L 130.847229 -234.769501 
L 129.413545 -239.498422 
L 127.979861 -244.629896 
L 126.546178 -250.21955 
L 125.112494 -256.321591 
L 123.678811 -262.981882 
L 122.245127 -270.228958 
L 120.811444 -278.063413 
L 119.37776 -286.446444 
L 117.944076 -295.288733 
L 116.510393 -304.441122 
L 115.076709 -313.688701 
L 113.643026 -322.749929 
L 112.209342 -331.282071 
L 110.775659 -338.893747 
L 109.341975 -345.164597 
L 107.908291 -349.671163 
L 106.474608 -352.017143 
L 105.040924 -351.865341 
L 103.607241 -348.968095 
L 102.173557 -343.19277 
L 100.739874 -334.539236 
L 99.30619 -323.146946 
L 97.872506 -309.290419 
L 96.438823 -293.363219 
L 95.005139 -275.851935 
L 93.571456 -257.302833 
L 92.137772 -238.284654 
L 90.704089 -219.351403 
L 89.270405 -201.008743 
L 87.836721 -183.686985 
L 86.403038 -167.722674 
L 84.969354 -153.349584 
L 83.535671 -140.698832 
L 82.101987 -129.806826 
L 80.668304 -120.629111 
L 79.23462 -113.057844 
L 77.800937 -106.940649 
L 76.367253 -102.098863 
L 74.933569 -98.343696 
L 73.499886 -95.489334 
L 72.066202 -93.362572 
L 70.632519 -91.80903 
L 69.198835 -90.696335 
L 67.765152 -89.914839 
z
" style="stroke: #1f77b4"/>
    </defs>
    <g clip-path="url(#pfb7ed69d26)">
     <use xlink:href="#m4a3f6be59e" x="0" y="432" style="fill: #1f77b4; fill-opacity: 0.5; stroke: #1f77b4"/>
    </g>
   </g>
   <g id="matplotlib.axis_1">
    <g id="xtick_1">
     <g id="line2d_1">
      <defs>
       <path id="m65f45b11b3" d="M 0 0 
L 0 3.5 
" style="stroke: #000000; stroke-width: 0.8"/>
      </defs>
      <g>
       <use xlink:href="#m65f45b11b3" x="96.399167" y="343.64" style="stroke: #000000; stroke-width: 0.8"/>
      </g>
     </g>
     <g id="text_1">
      <!-- 0 -->
      <g transform="translate(91.945417 361.277812)scale(0.14 -0.14)">
       <defs>
        <path id="DejaVuSans-30" d="M 2034 4250 
Q 1547 4250 1301 3770 
Q 1056 3291 1056 2328 
Q 1056 1369 1301 889 
Q 1547 409 2034 409 
Q 2525 409 2770 889 
Q 3016 1369 3016 2328 
Q 3016 3291 2770 3770 
Q 2525 4250 2034 4250 
z
M 2034 4750 
Q 2819 4750 3233 4129 
Q 3647 3509 3647 2328 
Q 3647 1150 3233 529 
Q 2819 -91 2034 -91 
Q 1250 -91 836 529 
Q 422 1150 422 2328 
Q 422 3509 836 4129 
Q 1250 4750 2034 4750 
z
" transform="scale(0.015625)"/>
       </defs>
       <use xlink:href="#DejaVuSans-30"/>
      </g>
     </g>
    </g>
    <g id="xtick_2">
     <g id="line2d_2">
      <g>
       <use xlink:href="#m65f45b11b3" x="158.874509" y="343.64" style="stroke: #000000; stroke-width: 0.8"/>
      </g>
     </g>
     <g id="text_2">
      <!-- 20 -->
      <g transform="translate(149.967009 361.277812)scale(0.14 -0.14)">
       <defs>
        <path id="DejaVuSans-32" d="M 1228 531 
L 3431 531 
L 3431 0 
L 469 0 
L 469 531 
Q 828 903 1448 1529 
Q 2069 2156 2228 2338 
Q 2531 2678 2651 2914 
Q 2772 3150 2772 3378 
Q 2772 3750 2511 3984 
Q 2250 4219 1831 4219 
Q 1534 4219 1204 4116 
Q 875 4013 500 3803 
L 500 4441 
Q 881 4594 1212 4672 
Q 1544 4750 1819 4750 
Q 2544 4750 2975 4387 
Q 3406 4025 3406 3419 
Q 3406 3131 3298 2873 
Q 3191 2616 2906 2266 
Q 2828 2175 2409 1742 
Q 1991 1309 1228 531 
z
" transform="scale(0.015625)"/>
       </defs>
       <use xlink:href="#DejaVuSans-32"/>
       <use xlink:href="#DejaVuSans-30" x="63.623047"/>
      </g>
     </g>
    </g>
    <g id="xtick_3">
     <g id="line2d_3">
      <g>
       <use xlink:href="#m65f45b11b3" x="221.349852" y="343.64" style="stroke: #000000; stroke-width: 0.8"/>
      </g>
     </g>
     <g id="text_3">
      <!-- 40 -->
      <g transform="translate(212.442352 361.277812)scale(0.14 -0.14)">
       <defs>
        <path id="DejaVuSans-34" d="M 2419 4116 
L 825 1625 
L 2419 1625 
L 2419 4116 
z
M 2253 4666 
L 3047 4666 
L 3047 1625 
L 3713 1625 
L 3713 1100 
L 3047 1100 
L 3047 0 
L 2419 0 
L 2419 1100 
L 313 1100 
L 313 1709 
L 2253 4666 
z
" transform="scale(0.015625)"/>
       </defs>
       <use xlink:href="#DejaVuSans-34"/>
       <use xlink:href="#DejaVuSans-30" x="63.623047"/>
      </g>
     </g>
    </g>
    <g id="xtick_4">
     <g id="line2d_4">
      <g>
       <use xlink:href="#m65f45b11b3" x="283.825194" y="343.64" style="stroke: #000000; stroke-width: 0.8"/>
      </g>
     </g>
     <g id="text_4">
      <!-- 60 -->
      <g transform="translate(274.917694 361.277812)scale(0.14 -0.14)">
       <defs>
        <path id="DejaVuSans-36" d="M 2113 2584 
Q 1688 2584 1439 2293 
Q 1191 2003 1191 1497 
Q 1191 994 1439 701 
Q 1688 409 2113 409 
Q 2538 409 2786 701 
Q 3034 994 3034 1497 
Q 3034 2003 2786 2293 
Q 2538 2584 2113 2584 
z
M 3366 4563 
L 3366 3988 
Q 3128 4100 2886 4159 
Q 2644 4219 2406 4219 
Q 1781 4219 1451 3797 
Q 1122 3375 1075 2522 
Q 1259 2794 1537 2939 
Q 1816 3084 2150 3084 
Q 2853 3084 3261 2657 
Q 3669 2231 3669 1497 
Q 3669 778 3244 343 
Q 2819 -91 2113 -91 
Q 1303 -91 875 529 
Q 447 1150 447 2328 
Q 447 3434 972 4092 
Q 1497 4750 2381 4750 
Q 2619 4750 2861 4703 
Q 3103 4656 3366 4563 
z
" transform="scale(0.015625)"/>
       </defs>
       <use xlink:href="#DejaVuSans-36"/>
       <use xlink:href="#DejaVuSans-30" x="63.623047"/>
      </g>
     </g>
    </g>
    <g id="xtick_5">
     <g id="line2d_5">
      <g>
       <use xlink:href="#m65f45b11b3" x="346.300536" y="343.64" style="stroke: #000000; stroke-width: 0.8"/>
      </g>
     </g>
     <g id="text_5">
      <!-- 80 -->
      <g transform="translate(337.393036 361.277812)scale(0.14 -0.14)">
       <defs>
        <path id="DejaVuSans-38" d="M 2034 2216 
Q 1584 2216 1326 1975 
Q 1069 1734 1069 1313 
Q 1069 891 1326 650 
Q 1584 409 2034 409 
Q 2484 409 2743 651 
Q 3003 894 3003 1313 
Q 3003 1734 2745 1975 
Q 2488 2216 2034 2216 
z
M 1403 2484 
Q 997 2584 770 2862 
Q 544 3141 544 3541 
Q 544 4100 942 4425 
Q 1341 4750 2034 4750 
Q 2731 4750 3128 4425 
Q 3525 4100 3525 3541 
Q 3525 3141 3298 2862 
Q 3072 2584 2669 2484 
Q 3125 2378 3379 2068 
Q 3634 1759 3634 1313 
Q 3634 634 3220 271 
Q 2806 -91 2034 -91 
Q 1263 -91 848 271 
Q 434 634 434 1313 
Q 434 1759 690 2068 
Q 947 2378 1403 2484 
z
M 1172 3481 
Q 1172 3119 1398 2916 
Q 1625 2713 2034 2713 
Q 2441 2713 2670 2916 
Q 2900 3119 2900 3481 
Q 2900 3844 2670 4047 
Q 2441 4250 2034 4250 
Q 1625 4250 1398 4047 
Q 1172 3844 1172 3481 
z
" transform="scale(0.015625)"/>
       </defs>
       <use xlink:href="#DejaVuSans-38"/>
       <use xlink:href="#DejaVuSans-30" x="63.623047"/>
      </g>
     </g>
    </g>
    <g id="text_6">
     <!-- Tenure (months) -->
     <g transform="translate(153.072448 378.827187)scale(0.14 -0.14)">
      <defs>
       <path id="DejaVuSans-54" d="M -19 4666 
L 3928 4666 
L 3928 4134 
L 2272 4134 
L 2272 0 
L 1638 0 
L 1638 4134 
L -19 4134 
L -19 4666 
z
" transform="scale(0.015625)"/>
       <path id="DejaVuSans-65" d="M 3597 1894 
L 3597 1613 
L 953 1613 
Q 991 1019 1311 708 
Q 1631 397 2203 397 
Q 2534 397 2845 478 
Q 3156 559 3463 722 
L 3463 178 
Q 3153 47 2828 -22 
Q 2503 -91 2169 -91 
Q 1331 -91 842 396 
Q 353 884 353 1716 
Q 353 2575 817 3079 
Q 1281 3584 2069 3584 
Q 2775 3584 3186 3129 
Q 3597 2675 3597 1894 
z
M 3022 2063 
Q 3016 2534 2758 2815 
Q 2500 3097 2075 3097 
Q 1594 3097 1305 2825 
Q 1016 2553 972 2059 
L 3022 2063 
z
" transform="scale(0.015625)"/>
       <path id="DejaVuSans-6e" d="M 3513 2113 
L 3513 0 
L 2938 0 
L 2938 2094 
Q 2938 2591 2744 2837 
Q 2550 3084 2163 3084 
Q 1697 3084 1428 2787 
Q 1159 2491 1159 1978 
L 1159 0 
L 581 0 
L 581 3500 
L 1159 3500 
L 1159 2956 
Q 1366 3272 1645 3428 
Q 1925 3584 2291 3584 
Q 2894 3584 3203 3211 
Q 3513 2838 3513 2113 
z
" transform="scale(0.015625)"/>
       <path id="DejaVuSans-75" d="M 544 1381 
L 544 3500 
L 1119 3500 
L 1119 1403 
Q 1119 906 1312 657 
Q 1506 409 1894 409 
Q 2359 409 2629 706 
Q 2900 1003 2900 1516 
L 2900 3500 
L 3475 3500 
L 3475 0 
L 2900 0 
L 2900 538 
Q 2691 219 2414 64 
Q 2138 -91 1772 -91 
Q 1169 -91 856 284 
Q 544 659 544 1381 
z
M 1991 3584 
L 1991 3584 
z
" transform="scale(0.015625)"/>
       <path id="DejaVuSans-72" d="M 2631 2963 
Q 2534 3019 2420 3045 
Q 2306 3072 2169 3072 
Q 1681 3072 1420 2755 
Q 1159 2438 1159 1844 
L 1159 0 
L 581 0 
L 581 3500 
L 1159 3500 
L 1159 2956 
Q 1341 3275 1631 3429 
Q 1922 3584 2338 3584 
Q 2397 3584 2469 3576 
Q 2541 3569 2628 3553 
L 2631 2963 
z
" transform="scale(0.015625)"/>
       <path id="DejaVuSans-20" transform="scale(0.015625)"/>
       <path id="DejaVuSans-28" d="M 1984 4856 
Q 1566 4138 1362 3434 
Q 1159 2731 1159 2009 
Q 1159 1288 1364 580 
Q 1569 -128 1984 -844 
L 1484 -844 
Q 1016 -109 783 600 
Q 550 1309 550 2009 
Q 550 2706 781 3412 
Q 1013 4119 1484 4856 
L 1984 4856 
z
" transform="scale(0.015625)"/>
       <path id="DejaVuSans-6d" d="M 3328 2828 
Q 3544 3216 3844 3400 
Q 4144 3584 4550 3584 
Q 5097 3584 5394 3201 
Q 5691 2819 5691 2113 
L 5691 0 
L 5113 0 
L 5113 2094 
Q 5113 2597 4934 2840 
Q 4756 3084 4391 3084 
Q 3944 3084 3684 2787 
Q 3425 2491 3425 1978 
L 3425 0 
L 2847 0 
L 2847 2094 
Q 2847 2600 2669 2842 
Q 2491 3084 2119 3084 
Q 1678 3084 1418 2786 
Q 1159 2488 1159 1978 
L 1159 0 
L 581 0 
L 581 3500 
L 1159 3500 
L 1159 2956 
Q 1356 3278 1631 3431 
Q 1906 3584 2284 3584 
Q 2666 3584 2933 3390 
Q 3200 3197 3328 2828 
z
" transform="scale(0.015625)"/>
       <path id="DejaVuSans-6f" d="M 1959 3097 
Q 1497 3097 1228 2736 
Q 959 2375 959 1747 
Q 959 1119 1226 758 
Q 1494 397 1959 397 
Q 2419 397 2687 759 
Q 2956 1122 2956 1747 
Q 2956 2369 2687 2733 
Q 2419 3097 1959 3097 
z
M 1959 3584 
Q 2709 3584 3137 3096 
Q 3566 2609 3566 1747 
Q 3566 888 3137 398 
Q 2709 -91 1959 -91 
Q 1206 -91 779 398 
Q 353 888 353 1747 
Q 353 2609 779 3096 
Q 1206 3584 1959 3584 
z
" transform="scale(0.015625)"/>
       <path id="DejaVuSans-74" d="M 1172 4494 
L 1172 3500 
L 2356 3500 
L 2356 3053 
L 1172 3053 
L 1172 1153 
Q 1172 725 1289 603 
Q 1406 481 1766 481 
L 2356 481 
L 2356 0 
L 1766 0 
Q 1100 0 847 248 
Q 594 497 594 1153 
L 594 3053 
L 172 3053 
L 172 3500 
L 594 3500 
L 594 4494 
L 1172 4494 
z
" transform="scale(0.015625)"/>
       <path id="DejaVuSans-68" d="M 3513 2113 
L 3513 0 
L 2938 0 
L 2938 2094 
Q 2938 2591 2744 2837 
Q 2550 3084 2163 3084 
Q 1697 3084 1428 2787 
Q 1159 2491 1159 1978 
L 1159 0 
L 581 0 
L 581 4863 
L 1159 4863 
L 1159 2956 
Q 1366 3272 1645 3428 
Q 1925 3584 2291 3584 
Q 2894 3584 3203 3211 
Q 3513 2838 3513 2113 
z
" transform="scale(0.015625)"/>
       <path id="DejaVuSans-73" d="M 2834 3397 
L 2834 2853 
Q 2591 2978 2328 3040 
Q 2066 3103 1784 3103 
Q 1356 3103 1142 2972 
Q 928 2841 928 2578 
Q 928 2378 1081 2264 
Q 1234 2150 1697 2047 
L 1894 2003 
Q 2506 1872 2764 1633 
Q 3022 1394 3022 966 
Q 3022 478 2636 193 
Q 2250 -91 1575 -91 
Q 1294 -91 989 -36 
Q 684 19 347 128 
L 347 722 
Q 666 556 975 473 
Q 1284 391 1588 391 
Q 1994 391 2212 530 
Q 2431 669 2431 922 
Q 2431 1156 2273 1281 
Q 2116 1406 1581 1522 
L 1381 1569 
Q 847 1681 609 1914 
Q 372 2147 372 2553 
Q 372 3047 722 3315 
Q 1072 3584 1716 3584 
Q 2034 3584 2315 3537 
Q 2597 3491 2834 3397 
z
" transform="scale(0.015625)"/>
       <path id="DejaVuSans-29" d="M 513 4856 
L 1013 4856 
Q 1481 4119 1714 3412 
Q 1947 2706 1947 2009 
Q 1947 1309 1714 600 
Q 1481 -109 1013 -844 
L 513 -844 
Q 928 -128 1133 580 
Q 1338 1288 1338 2009 
Q 1338 2731 1133 3434 
Q 928 4138 513 4856 
z
" transform="scale(0.015625)"/>
      </defs>
      <use xlink:href="#DejaVuSans-54"/>
      <use xlink:href="#DejaVuSans-65" x="44.083984"/>
      <use xlink:href="#DejaVuSans-6e" x="105.607422"/>
      <use xlink:href="#DejaVuSans-75" x="168.986328"/>
      <use xlink:href="#DejaVuSans-72" x="232.365234"/>
      <use xlink:href="#DejaVuSans-65" x="271.228516"/>
      <use xlink:href="#DejaVuSans-20" x="332.751953"/>
      <use xlink:href="#DejaVuSans-28" x="364.539062"/>
      <use xlink:href="#DejaVuSans-6d" x="403.552734"/>
      <use xlink:href="#DejaVuSans-6f" x="500.964844"/>
      <use xlink:href="#DejaVuSans-6e" x="562.146484"/>
      <use xlink:href="#DejaVuSans-74" x="625.525391"/>
      <use xlink:href="#DejaVuSans-68" x="664.734375"/>
      <use xlink:href="#DejaVuSans-73" x="728.113281"/>
      <use xlink:href="#DejaVuSans-29" x="780.212891"/>
     </g>
    </g>
   </g>
   <g id="matplotlib.axis_2"/>
   <g id="patch_3">
    <path d="M 53.5 343.64 
L 53.5 66.8 
" style="fill: none; stroke: #000000; stroke-width: 0.8; stroke-linejoin: miter; stroke-linecap: square"/>
   </g>
   <g id="patch_4">
    <path d="M 367.333333 343.64 
L 367.333333 66.8 
" style="fill: none; stroke: #000000; stroke-width: 0.8; stroke-linejoin: miter; stroke-linecap: square"/>
   </g>
   <g id="patch_5">
    <path d="M 53.5 343.64 
L 367.333333 343.64 
" style="fill: none; stroke: #000000; stroke-width: 0.8; stroke-linejoin: miter; stroke-linecap: square"/>
   </g>
   <g id="patch_6">
    <path d="M 53.5 66.8 
L 367.333333 66.8 
" style="fill: none; stroke: #000000; stroke-width: 0.8; stroke-linejoin: miter; stroke-linecap: square"/>
   </g>
   <g id="text_7">
    <!-- Month to Month -->
    <g transform="translate(155.060885 60.8)scale(0.14 -0.14)">
     <defs>
      <path id="DejaVuSans-4d" d="M 628 4666 
L 1569 4666 
L 2759 1491 
L 3956 4666 
L 4897 4666 
L 4897 0 
L 4281 0 
L 4281 4097 
L 3078 897 
L 2444 897 
L 1241 4097 
L 1241 0 
L 628 0 
L 628 4666 
z
" transform="scale(0.015625)"/>
     </defs>
     <use xlink:href="#DejaVuSans-4d"/>
     <use xlink:href="#DejaVuSans-6f" x="86.279297"/>
     <use xlink:href="#DejaVuSans-6e" x="147.460938"/>
     <use xlink:href="#DejaVuSans-74" x="210.839844"/>
     <use xlink:href="#DejaVuSans-68" x="250.048828"/>
     <use xlink:href="#DejaVuSans-20" x="313.427734"/>
     <use xlink:href="#DejaVuSans-74" x="345.214844"/>
     <use xlink:href="#DejaVuSans-6f" x="384.423828"/>
     <use xlink:href="#DejaVuSans-20" x="445.605469"/>
     <use xlink:href="#DejaVuSans-4d" x="477.392578"/>
     <use xlink:href="#DejaVuSans-6f" x="563.671875"/>
     <use xlink:href="#DejaVuSans-6e" x="624.853516"/>
     <use xlink:href="#DejaVuSans-74" x="688.232422"/>
     <use xlink:href="#DejaVuSans-68" x="727.441406"/>
    </g>
   </g>
  </g>
  <g id="axes_2">
   <g id="patch_7">
    <path d="M 420.833333 343.64 
L 734.666667 343.64 
L 734.666667 66.8 
L 420.833333 66.8 
z
" style="fill: #ffffff"/>
   </g>
   <g id="PolyCollection_2">
    <defs>
     <path id="m59e7dd446c" d="M 435.098485 -88.487971 
L 435.098485 -88.36 
L 436.532168 -88.36 
L 437.965852 -88.36 
L 439.399536 -88.36 
L 440.833219 -88.36 
L 442.266903 -88.36 
L 443.700586 -88.36 
L 445.13427 -88.36 
L 446.567953 -88.36 
L 448.001637 -88.36 
L 449.435321 -88.36 
L 450.869004 -88.36 
L 452.302688 -88.36 
L 453.736371 -88.36 
L 455.170055 -88.36 
L 456.603738 -88.36 
L 458.037422 -88.36 
L 459.471106 -88.36 
L 460.904789 -88.36 
L 462.338473 -88.36 
L 463.772156 -88.36 
L 465.20584 -88.36 
L 466.639523 -88.36 
L 468.073207 -88.36 
L 469.506891 -88.36 
L 470.940574 -88.36 
L 472.374258 -88.36 
L 473.807941 -88.36 
L 475.241625 -88.36 
L 476.675308 -88.36 
L 478.108992 -88.36 
L 479.542675 -88.36 
L 480.976359 -88.36 
L 482.410043 -88.36 
L 483.843726 -88.36 
L 485.27741 -88.36 
L 486.711093 -88.36 
L 488.144777 -88.36 
L 489.57846 -88.36 
L 491.012144 -88.36 
L 492.445828 -88.36 
L 493.879511 -88.36 
L 495.313195 -88.36 
L 496.746878 -88.36 
L 498.180562 -88.36 
L 499.614245 -88.36 
L 501.047929 -88.36 
L 502.481613 -88.36 
L 503.915296 -88.36 
L 505.34898 -88.36 
L 506.782663 -88.36 
L 508.216347 -88.36 
L 509.65003 -88.36 
L 511.083714 -88.36 
L 512.517398 -88.36 
L 513.951081 -88.36 
L 515.384765 -88.36 
L 516.818448 -88.36 
L 518.252132 -88.36 
L 519.685815 -88.36 
L 521.119499 -88.36 
L 522.553183 -88.36 
L 523.986866 -88.36 
L 525.42055 -88.36 
L 526.854233 -88.36 
L 528.287917 -88.36 
L 529.7216 -88.36 
L 531.155284 -88.36 
L 532.588968 -88.36 
L 534.022651 -88.36 
L 535.456335 -88.36 
L 536.890018 -88.36 
L 538.323702 -88.36 
L 539.757385 -88.36 
L 541.191069 -88.36 
L 542.624753 -88.36 
L 544.058436 -88.36 
L 545.49212 -88.36 
L 546.925803 -88.36 
L 548.359487 -88.36 
L 549.79317 -88.36 
L 551.226854 -88.36 
L 552.660538 -88.36 
L 554.094221 -88.36 
L 555.527905 -88.36 
L 556.961588 -88.36 
L 558.395272 -88.36 
L 559.828955 -88.36 
L 561.262639 -88.36 
L 562.696323 -88.36 
L 564.130006 -88.36 
L 565.56369 -88.36 
L 566.997373 -88.36 
L 568.431057 -88.36 
L 569.86474 -88.36 
L 571.298424 -88.36 
L 572.732108 -88.36 
L 574.165791 -88.36 
L 575.599475 -88.36 
L 577.033158 -88.36 
L 578.466842 -88.36 
L 579.900525 -88.36 
L 581.334209 -88.36 
L 582.767892 -88.36 
L 584.201576 -88.36 
L 585.63526 -88.36 
L 587.068943 -88.36 
L 588.502627 -88.36 
L 589.93631 -88.36 
L 591.369994 -88.36 
L 592.803677 -88.36 
L 594.237361 -88.36 
L 595.671045 -88.36 
L 597.104728 -88.36 
L 598.538412 -88.36 
L 599.972095 -88.36 
L 601.405779 -88.36 
L 602.839462 -88.36 
L 604.273146 -88.36 
L 605.70683 -88.36 
L 607.140513 -88.36 
L 608.574197 -88.36 
L 610.00788 -88.36 
L 611.441564 -88.36 
L 612.875247 -88.36 
L 614.308931 -88.36 
L 615.742615 -88.36 
L 617.176298 -88.36 
L 618.609982 -88.36 
L 620.043665 -88.36 
L 621.477349 -88.36 
L 622.911032 -88.36 
L 624.344716 -88.36 
L 625.7784 -88.36 
L 627.212083 -88.36 
L 628.645767 -88.36 
L 630.07945 -88.36 
L 631.513134 -88.36 
L 632.946817 -88.36 
L 634.380501 -88.36 
L 635.814185 -88.36 
L 637.247868 -88.36 
L 638.681552 -88.36 
L 640.115235 -88.36 
L 641.548919 -88.36 
L 642.982602 -88.36 
L 644.416286 -88.36 
L 645.84997 -88.36 
L 647.283653 -88.36 
L 648.717337 -88.36 
L 650.15102 -88.36 
L 651.584704 -88.36 
L 653.018387 -88.36 
L 654.452071 -88.36 
L 655.885755 -88.36 
L 657.319438 -88.36 
L 658.753122 -88.36 
L 660.186805 -88.36 
L 661.620489 -88.36 
L 663.054172 -88.36 
L 664.487856 -88.36 
L 665.92154 -88.36 
L 667.355223 -88.36 
L 668.788907 -88.36 
L 670.22259 -88.36 
L 671.656274 -88.36 
L 673.089957 -88.36 
L 674.523641 -88.36 
L 675.957325 -88.36 
L 677.391008 -88.36 
L 678.824692 -88.36 
L 680.258375 -88.36 
L 681.692059 -88.36 
L 683.125742 -88.36 
L 684.559426 -88.36 
L 685.993109 -88.36 
L 687.426793 -88.36 
L 688.860477 -88.36 
L 690.29416 -88.36 
L 691.727844 -88.36 
L 693.161527 -88.36 
L 694.595211 -88.36 
L 696.028894 -88.36 
L 697.462578 -88.36 
L 698.896262 -88.36 
L 700.329945 -88.36 
L 701.763629 -88.36 
L 703.197312 -88.36 
L 704.630996 -88.36 
L 706.064679 -88.36 
L 707.498363 -88.36 
L 708.932047 -88.36 
L 710.36573 -88.36 
L 711.799414 -88.36 
L 713.233097 -88.36 
L 714.666781 -88.36 
L 716.100464 -88.36 
L 717.534148 -88.36 
L 718.967832 -88.36 
L 720.401515 -88.36 
L 720.401515 -88.768286 
L 720.401515 -88.768286 
L 718.967832 -88.941071 
L 717.534148 -89.177679 
L 716.100464 -89.497751 
L 714.666781 -89.92548 
L 713.233097 -90.490143 
L 711.799414 -91.226546 
L 710.36573 -92.175291 
L 708.932047 -93.382806 
L 707.498363 -94.901077 
L 706.064679 -96.786988 
L 704.630996 -99.101247 
L 703.197312 -101.906831 
L 701.763629 -105.266976 
L 700.329945 -109.242713 
L 698.896262 -113.890041 
L 697.462578 -119.25684 
L 696.028894 -125.379679 
L 694.595211 -132.280699 
L 693.161527 -139.964788 
L 691.727844 -148.41725 
L 690.29416 -157.602185 
L 688.860477 -167.461735 
L 687.426793 -177.916342 
L 685.993109 -188.866081 
L 684.559426 -200.193049 
L 683.125742 -211.764749 
L 681.692059 -223.438308 
L 680.258375 -235.065316 
L 678.824692 -246.49702 
L 677.391008 -257.589602 
L 675.957325 -268.209217 
L 674.523641 -278.236557 
L 673.089957 -287.570656 
L 671.656274 -296.131802 
L 670.22259 -303.863394 
L 668.788907 -310.732741 
L 667.355223 -316.730787 
L 665.92154 -321.87089 
L 664.487856 -326.186757 
L 663.054172 -329.729737 
L 661.620489 -332.565662 
L 660.186805 -334.771422 
L 658.753122 -336.43148 
L 657.319438 -337.634476 
L 655.885755 -338.470061 
L 654.452071 -339.026043 
L 653.018387 -339.385912 
L 651.584704 -339.626759 
L 650.15102 -339.817584 
L 648.717337 -340.017979 
L 647.283653 -340.277129 
L 645.84997 -340.633128 
L 644.416286 -341.112551 
L 642.982602 -341.73029 
L 641.548919 -342.489638 
L 640.115235 -343.382626 
L 638.681552 -344.390653 
L 637.247868 -345.485403 
L 635.814185 -346.630085 
L 634.380501 -347.780996 
L 632.946817 -348.889389 
L 631.513134 -349.903607 
L 630.07945 -350.771428 
L 628.645767 -351.442515 
L 627.212083 -351.870868 
L 625.7784 -352.017143 
L 624.344716 -351.8507 
L 622.911032 -351.351256 
L 621.477349 -350.510019 
L 620.043665 -349.330224 
L 618.609982 -347.827025 
L 617.176298 -346.026717 
L 615.742615 -343.965369 
L 614.308931 -341.686903 
L 612.875247 -339.240797 
L 611.441564 -336.679524 
L 610.00788 -334.055922 
L 608.574197 -331.420664 
L 607.140513 -328.819995 
L 605.70683 -326.293856 
L 604.273146 -323.874522 
L 602.839462 -321.585797 
L 601.405779 -319.442782 
L 599.972095 -317.452183 
L 598.538412 -315.613089 
L 597.104728 -313.918126 
L 595.671045 -312.354849 
L 594.237361 -310.907264 
L 592.803677 -309.557347 
L 591.369994 -308.286467 
L 589.93631 -307.076618 
L 588.502627 -305.911424 
L 587.068943 -304.776885 
L 585.63526 -303.661872 
L 584.201576 -302.558394 
L 582.767892 -301.461685 
L 581.334209 -300.370133 
L 579.900525 -299.285115 
L 578.466842 -298.210753 
L 577.033158 -297.153611 
L 575.599475 -296.122332 
L 574.165791 -295.127218 
L 572.732108 -294.179716 
L 571.298424 -293.29181 
L 569.86474 -292.475298 
L 568.431057 -291.740959 
L 566.997373 -291.097635 
L 565.56369 -290.551251 
L 564.130006 -290.103857 
L 562.696323 -289.752749 
L 561.262639 -289.489762 
L 559.828955 -289.300812 
L 558.395272 -289.165769 
L 556.961588 -289.058719 
L 555.527905 -288.948633 
L 554.094221 -288.800453 
L 552.660538 -288.576543 
L 551.226854 -288.238447 
L 549.79317 -287.748843 
L 548.359487 -287.073566 
L 546.925803 -286.183571 
L 545.49212 -285.05669 
L 544.058436 -283.679051 
L 542.624753 -282.046061 
L 541.191069 -280.162862 
L 539.757385 -278.044232 
L 538.323702 -275.713913 
L 536.890018 -273.203415 
L 535.456335 -270.550379 
L 534.022651 -267.796578 
L 532.588968 -264.985715 
L 531.155284 -262.161132 
L 529.7216 -259.363573 
L 528.287917 -256.629139 
L 526.854233 -253.987528 
L 525.42055 -251.460659 
L 523.986866 -249.061735 
L 522.553183 -246.794769 
L 521.119499 -244.654575 
L 519.685815 -242.62722 
L 518.252132 -240.690863 
L 516.818448 -238.816958 
L 515.384765 -236.97172 
L 513.951081 -235.117804 
L 512.517398 -233.216088 
L 511.083714 -231.227495 
L 509.65003 -229.11476 
L 508.216347 -226.844053 
L 506.782663 -224.386402 
L 505.34898 -221.718829 
L 503.915296 -218.825156 
L 502.481613 -215.696457 
L 501.047929 -212.331123 
L 499.614245 -208.734572 
L 498.180562 -204.918619 
L 496.746878 -200.900586 
L 495.313195 -196.702195 
L 493.879511 -192.34836 
L 492.445828 -187.865956 
L 491.012144 -183.282653 
L 489.57846 -178.625903 
L 488.144777 -173.922134 
L 486.711093 -169.196191 
L 485.27741 -164.471042 
L 483.843726 -159.767736 
L 482.410043 -155.105562 
L 480.976359 -150.502375 
L 479.542675 -145.975002 
L 478.108992 -141.539666 
L 476.675308 -137.212346 
L 475.241625 -133.009033 
L 473.807941 -128.945817 
L 472.374258 -125.038807 
L 470.940574 -121.303869 
L 469.506891 -117.756221 
L 468.073207 -114.409914 
L 466.639523 -111.277254 
L 465.20584 -108.368238 
L 463.772156 -105.690046 
L 462.338473 -103.246645 
L 460.904789 -101.03855 
L 459.471106 -99.062748 
L 458.037422 -97.312816 
L 456.603738 -95.779188 
L 455.170055 -94.449578 
L 453.736371 -93.309503 
L 452.302688 -92.342872 
L 450.869004 -91.532599 
L 449.435321 -90.861198 
L 448.001637 -90.311333 
L 446.567953 -89.866283 
L 445.13427 -89.510325 
L 443.700586 -89.229009 
L 442.266903 -89.009343 
L 440.833219 -88.839877 
L 439.399536 -88.710714 
L 437.965852 -88.613462 
L 436.532168 -88.541123 
L 435.098485 -88.487971 
z
" style="stroke: #1f77b4"/>
    </defs>
    <g clip-path="url(#p918666619f)">
     <use xlink:href="#m59e7dd446c" x="0" y="432" style="fill: #1f77b4; fill-opacity: 0.5; stroke: #1f77b4"/>
    </g>
   </g>
   <g id="matplotlib.axis_3">
    <g id="xtick_6">
     <g id="line2d_6">
      <g>
       <use xlink:href="#m65f45b11b3" x="470.965848" y="343.64" style="stroke: #000000; stroke-width: 0.8"/>
      </g>
     </g>
     <g id="text_8">
      <!-- 0 -->
      <g transform="translate(466.512098 361.277812)scale(0.14 -0.14)">
       <use xlink:href="#DejaVuSans-30"/>
      </g>
     </g>
    </g>
    <g id="xtick_7">
     <g id="line2d_7">
      <g>
       <use xlink:href="#m65f45b11b3" x="529.477712" y="343.64" style="stroke: #000000; stroke-width: 0.8"/>
      </g>
     </g>
     <g id="text_9">
      <!-- 20 -->
      <g transform="translate(520.570212 361.277812)scale(0.14 -0.14)">
       <use xlink:href="#DejaVuSans-32"/>
       <use xlink:href="#DejaVuSans-30" x="63.623047"/>
      </g>
     </g>
    </g>
    <g id="xtick_8">
     <g id="line2d_8">
      <g>
       <use xlink:href="#m65f45b11b3" x="587.989576" y="343.64" style="stroke: #000000; stroke-width: 0.8"/>
      </g>
     </g>
     <g id="text_10">
      <!-- 40 -->
      <g transform="translate(579.082076 361.277812)scale(0.14 -0.14)">
       <use xlink:href="#DejaVuSans-34"/>
       <use xlink:href="#DejaVuSans-30" x="63.623047"/>
      </g>
     </g>
    </g>
    <g id="xtick_9">
     <g id="line2d_9">
      <g>
       <use xlink:href="#m65f45b11b3" x="646.50144" y="343.64" style="stroke: #000000; stroke-width: 0.8"/>
      </g>
     </g>
     <g id="text_11">
      <!-- 60 -->
      <g transform="translate(637.59394 361.277812)scale(0.14 -0.14)">
       <use xlink:href="#DejaVuSans-36"/>
       <use xlink:href="#DejaVuSans-30" x="63.623047"/>
      </g>
     </g>
    </g>
    <g id="xtick_10">
     <g id="line2d_10">
      <g>
       <use xlink:href="#m65f45b11b3" x="705.013304" y="343.64" style="stroke: #000000; stroke-width: 0.8"/>
      </g>
     </g>
     <g id="text_12">
      <!-- 80 -->
      <g transform="translate(696.105804 361.277812)scale(0.14 -0.14)">
       <use xlink:href="#DejaVuSans-38"/>
       <use xlink:href="#DejaVuSans-30" x="63.623047"/>
      </g>
     </g>
    </g>
    <g id="text_13">
     <!-- Tenure (months) -->
     <g transform="translate(520.405781 378.827187)scale(0.14 -0.14)">
      <use xlink:href="#DejaVuSans-54"/>
      <use xlink:href="#DejaVuSans-65" x="44.083984"/>
      <use xlink:href="#DejaVuSans-6e" x="105.607422"/>
      <use xlink:href="#DejaVuSans-75" x="168.986328"/>
      <use xlink:href="#DejaVuSans-72" x="232.365234"/>
      <use xlink:href="#DejaVuSans-65" x="271.228516"/>
      <use xlink:href="#DejaVuSans-20" x="332.751953"/>
      <use xlink:href="#DejaVuSans-28" x="364.539062"/>
      <use xlink:href="#DejaVuSans-6d" x="403.552734"/>
      <use xlink:href="#DejaVuSans-6f" x="500.964844"/>
      <use xlink:href="#DejaVuSans-6e" x="562.146484"/>
      <use xlink:href="#DejaVuSans-74" x="625.525391"/>
      <use xlink:href="#DejaVuSans-68" x="664.734375"/>
      <use xlink:href="#DejaVuSans-73" x="728.113281"/>
      <use xlink:href="#DejaVuSans-29" x="780.212891"/>
     </g>
    </g>
   </g>
   <g id="matplotlib.axis_4"/>
   <g id="patch_8">
    <path d="M 420.833333 343.64 
L 420.833333 66.8 
" style="fill: none; stroke: #000000; stroke-width: 0.8; stroke-linejoin: miter; stroke-linecap: square"/>
   </g>
   <g id="patch_9">
    <path d="M 734.666667 343.64 
L 734.666667 66.8 
" style="fill: none; stroke: #000000; stroke-width: 0.8; stroke-linejoin: miter; stroke-linecap: square"/>
   </g>
   <g id="patch_10">
    <path d="M 420.833333 343.64 
L 734.666667 343.64 
" style="fill: none; stroke: #000000; stroke-width: 0.8; stroke-linejoin: miter; stroke-linecap: square"/>
   </g>
   <g id="patch_11">
    <path d="M 420.833333 66.8 
L 734.666667 66.8 
" style="fill: none; stroke: #000000; stroke-width: 0.8; stroke-linejoin: miter; stroke-linecap: square"/>
   </g>
   <g id="text_14">
    <!-- One Year -->
    <g transform="translate(546.449062 60.8)scale(0.14 -0.14)">
     <defs>
      <path id="DejaVuSans-4f" d="M 2522 4238 
Q 1834 4238 1429 3725 
Q 1025 3213 1025 2328 
Q 1025 1447 1429 934 
Q 1834 422 2522 422 
Q 3209 422 3611 934 
Q 4013 1447 4013 2328 
Q 4013 3213 3611 3725 
Q 3209 4238 2522 4238 
z
M 2522 4750 
Q 3503 4750 4090 4092 
Q 4678 3434 4678 2328 
Q 4678 1225 4090 567 
Q 3503 -91 2522 -91 
Q 1538 -91 948 565 
Q 359 1222 359 2328 
Q 359 3434 948 4092 
Q 1538 4750 2522 4750 
z
" transform="scale(0.015625)"/>
      <path id="DejaVuSans-59" d="M -13 4666 
L 666 4666 
L 1959 2747 
L 3244 4666 
L 3922 4666 
L 2272 2222 
L 2272 0 
L 1638 0 
L 1638 2222 
L -13 4666 
z
" transform="scale(0.015625)"/>
      <path id="DejaVuSans-61" d="M 2194 1759 
Q 1497 1759 1228 1600 
Q 959 1441 959 1056 
Q 959 750 1161 570 
Q 1363 391 1709 391 
Q 2188 391 2477 730 
Q 2766 1069 2766 1631 
L 2766 1759 
L 2194 1759 
z
M 3341 1997 
L 3341 0 
L 2766 0 
L 2766 531 
Q 2569 213 2275 61 
Q 1981 -91 1556 -91 
Q 1019 -91 701 211 
Q 384 513 384 1019 
Q 384 1609 779 1909 
Q 1175 2209 1959 2209 
L 2766 2209 
L 2766 2266 
Q 2766 2663 2505 2880 
Q 2244 3097 1772 3097 
Q 1472 3097 1187 3025 
Q 903 2953 641 2809 
L 641 3341 
Q 956 3463 1253 3523 
Q 1550 3584 1831 3584 
Q 2591 3584 2966 3190 
Q 3341 2797 3341 1997 
z
" transform="scale(0.015625)"/>
     </defs>
     <use xlink:href="#DejaVuSans-4f"/>
     <use xlink:href="#DejaVuSans-6e" x="78.710938"/>
     <use xlink:href="#DejaVuSans-65" x="142.089844"/>
     <use xlink:href="#DejaVuSans-20" x="203.613281"/>
     <use xlink:href="#DejaVuSans-59" x="235.400391"/>
     <use xlink:href="#DejaVuSans-65" x="283.234375"/>
     <use xlink:href="#DejaVuSans-61" x="344.757812"/>
     <use xlink:href="#DejaVuSans-72" x="406.037109"/>
    </g>
   </g>
  </g>
  <g id="axes_3">
   <g id="patch_12">
    <path d="M 788.166667 343.64 
L 1102 343.64 
L 1102 66.8 
L 788.166667 66.8 
z
" style="fill: #ffffff"/>
   </g>
   <g id="PolyCollection_3">
    <defs>
     <path id="m8b05dbcd2e" d="M 802.431818 -88.373507 
L 802.431818 -88.36 
L 803.865502 -88.36 
L 805.299185 -88.36 
L 806.732869 -88.36 
L 808.166552 -88.36 
L 809.600236 -88.36 
L 811.03392 -88.36 
L 812.467603 -88.36 
L 813.901287 -88.36 
L 815.33497 -88.36 
L 816.768654 -88.36 
L 818.202337 -88.36 
L 819.636021 -88.36 
L 821.069705 -88.36 
L 822.503388 -88.36 
L 823.937072 -88.36 
L 825.370755 -88.36 
L 826.804439 -88.36 
L 828.238122 -88.36 
L 829.671806 -88.36 
L 831.10549 -88.36 
L 832.539173 -88.36 
L 833.972857 -88.36 
L 835.40654 -88.36 
L 836.840224 -88.36 
L 838.273907 -88.36 
L 839.707591 -88.36 
L 841.141275 -88.36 
L 842.574958 -88.36 
L 844.008642 -88.36 
L 845.442325 -88.36 
L 846.876009 -88.36 
L 848.309692 -88.36 
L 849.743376 -88.36 
L 851.17706 -88.36 
L 852.610743 -88.36 
L 854.044427 -88.36 
L 855.47811 -88.36 
L 856.911794 -88.36 
L 858.345477 -88.36 
L 859.779161 -88.36 
L 861.212845 -88.36 
L 862.646528 -88.36 
L 864.080212 -88.36 
L 865.513895 -88.36 
L 866.947579 -88.36 
L 868.381262 -88.36 
L 869.814946 -88.36 
L 871.24863 -88.36 
L 872.682313 -88.36 
L 874.115997 -88.36 
L 875.54968 -88.36 
L 876.983364 -88.36 
L 878.417047 -88.36 
L 879.850731 -88.36 
L 881.284414 -88.36 
L 882.718098 -88.36 
L 884.151782 -88.36 
L 885.585465 -88.36 
L 887.019149 -88.36 
L 888.452832 -88.36 
L 889.886516 -88.36 
L 891.320199 -88.36 
L 892.753883 -88.36 
L 894.187567 -88.36 
L 895.62125 -88.36 
L 897.054934 -88.36 
L 898.488617 -88.36 
L 899.922301 -88.36 
L 901.355984 -88.36 
L 902.789668 -88.36 
L 904.223352 -88.36 
L 905.657035 -88.36 
L 907.090719 -88.36 
L 908.524402 -88.36 
L 909.958086 -88.36 
L 911.391769 -88.36 
L 912.825453 -88.36 
L 914.259137 -88.36 
L 915.69282 -88.36 
L 917.126504 -88.36 
L 918.560187 -88.36 
L 919.993871 -88.36 
L 921.427554 -88.36 
L 922.861238 -88.36 
L 924.294922 -88.36 
L 925.728605 -88.36 
L 927.162289 -88.36 
L 928.595972 -88.36 
L 930.029656 -88.36 
L 931.463339 -88.36 
L 932.897023 -88.36 
L 934.330707 -88.36 
L 935.76439 -88.36 
L 937.198074 -88.36 
L 938.631757 -88.36 
L 940.065441 -88.36 
L 941.499124 -88.36 
L 942.932808 -88.36 
L 944.366492 -88.36 
L 945.800175 -88.36 
L 947.233859 -88.36 
L 948.667542 -88.36 
L 950.101226 -88.36 
L 951.534909 -88.36 
L 952.968593 -88.36 
L 954.402277 -88.36 
L 955.83596 -88.36 
L 957.269644 -88.36 
L 958.703327 -88.36 
L 960.137011 -88.36 
L 961.570694 -88.36 
L 963.004378 -88.36 
L 964.438062 -88.36 
L 965.871745 -88.36 
L 967.305429 -88.36 
L 968.739112 -88.36 
L 970.172796 -88.36 
L 971.606479 -88.36 
L 973.040163 -88.36 
L 974.473847 -88.36 
L 975.90753 -88.36 
L 977.341214 -88.36 
L 978.774897 -88.36 
L 980.208581 -88.36 
L 981.642264 -88.36 
L 983.075948 -88.36 
L 984.509631 -88.36 
L 985.943315 -88.36 
L 987.376999 -88.36 
L 988.810682 -88.36 
L 990.244366 -88.36 
L 991.678049 -88.36 
L 993.111733 -88.36 
L 994.545416 -88.36 
L 995.9791 -88.36 
L 997.412784 -88.36 
L 998.846467 -88.36 
L 1000.280151 -88.36 
L 1001.713834 -88.36 
L 1003.147518 -88.36 
L 1004.581201 -88.36 
L 1006.014885 -88.36 
L 1007.448569 -88.36 
L 1008.882252 -88.36 
L 1010.315936 -88.36 
L 1011.749619 -88.36 
L 1013.183303 -88.36 
L 1014.616986 -88.36 
L 1016.05067 -88.36 
L 1017.484354 -88.36 
L 1018.918037 -88.36 
L 1020.351721 -88.36 
L 1021.785404 -88.36 
L 1023.219088 -88.36 
L 1024.652771 -88.36 
L 1026.086455 -88.36 
L 1027.520139 -88.36 
L 1028.953822 -88.36 
L 1030.387506 -88.36 
L 1031.821189 -88.36 
L 1033.254873 -88.36 
L 1034.688556 -88.36 
L 1036.12224 -88.36 
L 1037.555924 -88.36 
L 1038.989607 -88.36 
L 1040.423291 -88.36 
L 1041.856974 -88.36 
L 1043.290658 -88.36 
L 1044.724341 -88.36 
L 1046.158025 -88.36 
L 1047.591709 -88.36 
L 1049.025392 -88.36 
L 1050.459076 -88.36 
L 1051.892759 -88.36 
L 1053.326443 -88.36 
L 1054.760126 -88.36 
L 1056.19381 -88.36 
L 1057.627494 -88.36 
L 1059.061177 -88.36 
L 1060.494861 -88.36 
L 1061.928544 -88.36 
L 1063.362228 -88.36 
L 1064.795911 -88.36 
L 1066.229595 -88.36 
L 1067.663279 -88.36 
L 1069.096962 -88.36 
L 1070.530646 -88.36 
L 1071.964329 -88.36 
L 1073.398013 -88.36 
L 1074.831696 -88.36 
L 1076.26538 -88.36 
L 1077.699063 -88.36 
L 1079.132747 -88.36 
L 1080.566431 -88.36 
L 1082.000114 -88.36 
L 1083.433798 -88.36 
L 1084.867481 -88.36 
L 1086.301165 -88.36 
L 1087.734848 -88.36 
L 1087.734848 -90.013866 
L 1087.734848 -90.013866 
L 1086.301165 -90.72823 
L 1084.867481 -91.704861 
L 1083.433798 -93.019892 
L 1082.000114 -94.763703 
L 1080.566431 -97.040786 
L 1079.132747 -99.968501 
L 1077.699063 -103.674424 
L 1076.26538 -108.292081 
L 1074.831696 -113.954941 
L 1073.398013 -120.78869 
L 1071.964329 -128.902016 
L 1070.530646 -138.376314 
L 1069.096962 -149.254969 
L 1067.663279 -161.533057 
L 1066.229595 -175.148432 
L 1064.795911 -189.975245 
L 1063.362228 -205.820848 
L 1061.928544 -222.426893 
L 1060.494861 -239.475111 
L 1059.061177 -256.597871 
L 1057.627494 -273.393168 
L 1056.19381 -289.443213 
L 1054.760126 -304.335379 
L 1053.326443 -317.683971 
L 1051.892759 -329.151074 
L 1050.459076 -338.464805 
L 1049.025392 -345.433458 
L 1047.591709 -349.954412 
L 1046.158025 -352.017143 
L 1044.724341 -351.70026 
L 1043.290658 -349.163002 
L 1041.856974 -344.632135 
L 1040.423291 -338.385541 
L 1038.989607 -330.733998 
L 1037.555924 -322.002686 
L 1036.12224 -312.513829 
L 1034.688556 -302.571652 
L 1033.254873 -292.450451 
L 1031.821189 -282.38624 
L 1030.387506 -272.572044 
L 1028.953822 -263.156587 
L 1027.520139 -254.245877 
L 1026.086455 -245.907039 
L 1024.652771 -238.173675 
L 1023.219088 -231.05204 
L 1021.785404 -224.527408 
L 1020.351721 -218.570136 
L 1018.918037 -213.141039 
L 1017.484354 -208.195882 
L 1016.05067 -203.688886 
L 1014.616986 -199.575269 
L 1013.183303 -195.812916 
L 1011.749619 -192.363335 
L 1010.315936 -189.192042 
L 1008.882252 -186.268562 
L 1007.448569 -183.566178 
L 1006.014885 -181.061559 
L 1004.581201 -178.734343 
L 1003.147518 -176.566733 
L 1001.713834 -174.543134 
L 1000.280151 -172.649829 
L 998.846467 -170.874677 
L 997.412784 -169.206825 
L 995.9791 -167.636397 
L 994.545416 -166.154174 
L 993.111733 -164.75124 
L 991.678049 -163.418634 
L 990.244366 -162.147022 
L 988.810682 -160.926433 
L 987.376999 -159.746106 
L 985.943315 -158.594476 
L 984.509631 -157.459331 
L 983.075948 -156.328152 
L 981.642264 -155.188614 
L 980.208581 -154.029222 
L 978.774897 -152.840008 
L 977.341214 -151.613238 
L 975.90753 -150.344025 
L 974.473847 -149.030794 
L 973.040163 -147.675524 
L 971.606479 -146.283724 
L 970.172796 -144.86414 
L 968.739112 -143.428202 
L 967.305429 -141.989254 
L 965.871745 -140.561636 
L 964.438062 -139.159698 
L 963.004378 -137.796827 
L 961.570694 -136.484576 
L 960.137011 -135.231956 
L 958.703327 -134.044943 
L 957.269644 -132.926236 
L 955.83596 -131.875257 
L 954.402277 -130.888394 
L 952.968593 -129.959443 
L 951.534909 -129.080216 
L 950.101226 -128.241245 
L 948.667542 -127.432553 
L 947.233859 -126.644412 
L 945.800175 -125.868063 
L 944.366492 -125.096336 
L 942.932808 -124.324148 
L 941.499124 -123.548856 
L 940.065441 -122.770438 
L 938.631757 -121.991514 
L 937.198074 -121.217184 
L 935.76439 -120.454725 
L 934.330707 -119.713133 
L 932.897023 -119.002554 
L 931.463339 -118.333627 
L 930.029656 -117.716767 
L 928.595972 -117.161442 
L 927.162289 -116.675462 
L 925.728605 -116.26435 
L 924.294922 -115.930815 
L 922.861238 -115.674387 
L 921.427554 -115.491232 
L 919.993871 -115.374194 
L 918.560187 -115.313049 
L 917.126504 -115.295 
L 915.69282 -115.305363 
L 914.259137 -115.328424 
L 912.825453 -115.348397 
L 911.391769 -115.35042 
L 909.958086 -115.321507 
L 908.524402 -115.251383 
L 907.090719 -115.133132 
L 905.657035 -114.96359 
L 904.223352 -114.74348 
L 902.789668 -114.477242 
L 901.355984 -114.172612 
L 899.922301 -113.839957 
L 898.488617 -113.491449 
L 897.054934 -113.140137 
L 895.62125 -112.798996 
L 894.187567 -112.480028 
L 892.753883 -112.193468 
L 891.320199 -111.94717 
L 889.886516 -111.746179 
L 888.452832 -111.592517 
L 887.019149 -111.485187 
L 885.585465 -111.420363 
L 884.151782 -111.39174 
L 882.718098 -111.391007 
L 881.284414 -111.408397 
L 879.850731 -111.43326 
L 878.417047 -111.454625 
L 876.983364 -111.461701 
L 875.54968 -111.444305 
L 874.115997 -111.39318 
L 872.682313 -111.300206 
L 871.24863 -111.158511 
L 869.814946 -110.962491 
L 868.381262 -110.70777 
L 866.947579 -110.391118 
L 865.513895 -110.01036 
L 864.080212 -109.564301 
L 862.646528 -109.052674 
L 861.212845 -108.476129 
L 859.779161 -107.836257 
L 858.345477 -107.135637 
L 856.911794 -106.377886 
L 855.47811 -105.567705 
L 854.044427 -104.710889 
L 852.610743 -103.814291 
L 851.17706 -102.885728 
L 849.743376 -101.933831 
L 848.309692 -100.967836 
L 846.876009 -99.997344 
L 845.442325 -99.032036 
L 844.008642 -98.0814 
L 842.574958 -97.15445 
L 841.141275 -96.259481 
L 839.707591 -95.403859 
L 838.273907 -94.593858 
L 836.840224 -93.834546 
L 835.40654 -93.129725 
L 833.972857 -92.481922 
L 832.539173 -91.892419 
L 831.10549 -91.361328 
L 829.671806 -90.887692 
L 828.238122 -90.469618 
L 826.804439 -90.10442 
L 825.370755 -89.788775 
L 823.937072 -89.518887 
L 822.503388 -89.290642 
L 821.069705 -89.099758 
L 819.636021 -88.941924 
L 818.202337 -88.812917 
L 816.768654 -88.708705 
L 815.33497 -88.625519 
L 813.901287 -88.559918 
L 812.467603 -88.508815 
L 811.03392 -88.469498 
L 809.600236 -88.439627 
L 808.166552 -88.417219 
L 806.732869 -88.400625 
L 805.299185 -88.388494 
L 803.865502 -88.37974 
L 802.431818 -88.373507 
z
" style="stroke: #1f77b4"/>
    </defs>
    <g clip-path="url(#p9133aa25ed)">
     <use xlink:href="#m8b05dbcd2e" x="0" y="432" style="fill: #1f77b4; fill-opacity: 0.5; stroke: #1f77b4"/>
    </g>
   </g>
   <g id="matplotlib.axis_5">
    <g id="xtick_11">
     <g id="line2d_11">
      <g>
       <use xlink:href="#m65f45b11b3" x="835.550336" y="343.64" style="stroke: #000000; stroke-width: 0.8"/>
      </g>
     </g>
     <g id="text_15">
      <!-- 0 -->
      <g transform="translate(831.096586 361.277812)scale(0.14 -0.14)">
       <use xlink:href="#DejaVuSans-30"/>
      </g>
     </g>
    </g>
    <g id="xtick_12">
     <g id="line2d_12">
      <g>
       <use xlink:href="#m65f45b11b3" x="895.568417" y="343.64" style="stroke: #000000; stroke-width: 0.8"/>
      </g>
     </g>
     <g id="text_16">
      <!-- 20 -->
      <g transform="translate(886.660917 361.277812)scale(0.14 -0.14)">
       <use xlink:href="#DejaVuSans-32"/>
       <use xlink:href="#DejaVuSans-30" x="63.623047"/>
      </g>
     </g>
    </g>
    <g id="xtick_13">
     <g id="line2d_13">
      <g>
       <use xlink:href="#m65f45b11b3" x="955.586497" y="343.64" style="stroke: #000000; stroke-width: 0.8"/>
      </g>
     </g>
     <g id="text_17">
      <!-- 40 -->
      <g transform="translate(946.678997 361.277812)scale(0.14 -0.14)">
       <use xlink:href="#DejaVuSans-34"/>
       <use xlink:href="#DejaVuSans-30" x="63.623047"/>
      </g>
     </g>
    </g>
    <g id="xtick_14">
     <g id="line2d_14">
      <g>
       <use xlink:href="#m65f45b11b3" x="1015.604578" y="343.64" style="stroke: #000000; stroke-width: 0.8"/>
      </g>
     </g>
     <g id="text_18">
      <!-- 60 -->
      <g transform="translate(1006.697078 361.277812)scale(0.14 -0.14)">
       <use xlink:href="#DejaVuSans-36"/>
       <use xlink:href="#DejaVuSans-30" x="63.623047"/>
      </g>
     </g>
    </g>
    <g id="xtick_15">
     <g id="line2d_15">
      <g>
       <use xlink:href="#m65f45b11b3" x="1075.622658" y="343.64" style="stroke: #000000; stroke-width: 0.8"/>
      </g>
     </g>
     <g id="text_19">
      <!-- 80 -->
      <g transform="translate(1066.715158 361.277812)scale(0.14 -0.14)">
       <use xlink:href="#DejaVuSans-38"/>
       <use xlink:href="#DejaVuSans-30" x="63.623047"/>
      </g>
     </g>
    </g>
    <g id="text_20">
     <!-- Tenure (months) -->
     <g transform="translate(887.739115 378.827187)scale(0.14 -0.14)">
      <use xlink:href="#DejaVuSans-54"/>
      <use xlink:href="#DejaVuSans-65" x="44.083984"/>
      <use xlink:href="#DejaVuSans-6e" x="105.607422"/>
      <use xlink:href="#DejaVuSans-75" x="168.986328"/>
      <use xlink:href="#DejaVuSans-72" x="232.365234"/>
      <use xlink:href="#DejaVuSans-65" x="271.228516"/>
      <use xlink:href="#DejaVuSans-20" x="332.751953"/>
      <use xlink:href="#DejaVuSans-28" x="364.539062"/>
      <use xlink:href="#DejaVuSans-6d" x="403.552734"/>
      <use xlink:href="#DejaVuSans-6f" x="500.964844"/>
      <use xlink:href="#DejaVuSans-6e" x="562.146484"/>
      <use xlink:href="#DejaVuSans-74" x="625.525391"/>
      <use xlink:href="#DejaVuSans-68" x="664.734375"/>
      <use xlink:href="#DejaVuSans-73" x="728.113281"/>
      <use xlink:href="#DejaVuSans-29" x="780.212891"/>
     </g>
    </g>
   </g>
   <g id="matplotlib.axis_6"/>
   <g id="patch_13">
    <path d="M 788.166667 343.64 
L 788.166667 66.8 
" style="fill: none; stroke: #000000; stroke-width: 0.8; stroke-linejoin: miter; stroke-linecap: square"/>
   </g>
   <g id="patch_14">
    <path d="M 1102 343.64 
L 1102 66.8 
" style="fill: none; stroke: #000000; stroke-width: 0.8; stroke-linejoin: miter; stroke-linecap: square"/>
   </g>
   <g id="patch_15">
    <path d="M 788.166667 343.64 
L 1102 343.64 
" style="fill: none; stroke: #000000; stroke-width: 0.8; stroke-linejoin: miter; stroke-linecap: square"/>
   </g>
   <g id="patch_16">
    <path d="M 788.166667 66.8 
L 1102 66.8 
" style="fill: none; stroke: #000000; stroke-width: 0.8; stroke-linejoin: miter; stroke-linecap: square"/>
   </g>
   <g id="text_21">
    <!-- Two Years -->
    <g transform="translate(911.261302 60.8)scale(0.14 -0.14)">
     <defs>
      <path id="DejaVuSans-77" d="M 269 3500 
L 844 3500 
L 1563 769 
L 2278 3500 
L 2956 3500 
L 3675 769 
L 4391 3500 
L 4966 3500 
L 4050 0 
L 3372 0 
L 2619 2869 
L 1863 0 
L 1184 0 
L 269 3500 
z
" transform="scale(0.015625)"/>
     </defs>
     <use xlink:href="#DejaVuSans-54"/>
     <use xlink:href="#DejaVuSans-77" x="44.583984"/>
     <use xlink:href="#DejaVuSans-6f" x="126.371094"/>
     <use xlink:href="#DejaVuSans-20" x="187.552734"/>
     <use xlink:href="#DejaVuSans-59" x="219.339844"/>
     <use xlink:href="#DejaVuSans-65" x="267.173828"/>
     <use xlink:href="#DejaVuSans-61" x="328.697266"/>
     <use xlink:href="#DejaVuSans-72" x="389.976562"/>
     <use xlink:href="#DejaVuSans-73" x="431.089844"/>
    </g>
   </g>
  </g>
  <g id="text_22">
   <!-- Tenure Based on Contract Type -->
   <g transform="translate(467.411406 19.277812)scale(0.14 -0.14)">
    <defs>
     <path id="DejaVuSans-42" d="M 1259 2228 
L 1259 519 
L 2272 519 
Q 2781 519 3026 730 
Q 3272 941 3272 1375 
Q 3272 1813 3026 2020 
Q 2781 2228 2272 2228 
L 1259 2228 
z
M 1259 4147 
L 1259 2741 
L 2194 2741 
Q 2656 2741 2882 2914 
Q 3109 3088 3109 3444 
Q 3109 3797 2882 3972 
Q 2656 4147 2194 4147 
L 1259 4147 
z
M 628 4666 
L 2241 4666 
Q 2963 4666 3353 4366 
Q 3744 4066 3744 3513 
Q 3744 3084 3544 2831 
Q 3344 2578 2956 2516 
Q 3422 2416 3680 2098 
Q 3938 1781 3938 1306 
Q 3938 681 3513 340 
Q 3088 0 2303 0 
L 628 0 
L 628 4666 
z
" transform="scale(0.015625)"/>
     <path id="DejaVuSans-64" d="M 2906 2969 
L 2906 4863 
L 3481 4863 
L 3481 0 
L 2906 0 
L 2906 525 
Q 2725 213 2448 61 
Q 2172 -91 1784 -91 
Q 1150 -91 751 415 
Q 353 922 353 1747 
Q 353 2572 751 3078 
Q 1150 3584 1784 3584 
Q 2172 3584 2448 3432 
Q 2725 3281 2906 2969 
z
M 947 1747 
Q 947 1113 1208 752 
Q 1469 391 1925 391 
Q 2381 391 2643 752 
Q 2906 1113 2906 1747 
Q 2906 2381 2643 2742 
Q 2381 3103 1925 3103 
Q 1469 3103 1208 2742 
Q 947 2381 947 1747 
z
" transform="scale(0.015625)"/>
     <path id="DejaVuSans-43" d="M 4122 4306 
L 4122 3641 
Q 3803 3938 3442 4084 
Q 3081 4231 2675 4231 
Q 1875 4231 1450 3742 
Q 1025 3253 1025 2328 
Q 1025 1406 1450 917 
Q 1875 428 2675 428 
Q 3081 428 3442 575 
Q 3803 722 4122 1019 
L 4122 359 
Q 3791 134 3420 21 
Q 3050 -91 2638 -91 
Q 1578 -91 968 557 
Q 359 1206 359 2328 
Q 359 3453 968 4101 
Q 1578 4750 2638 4750 
Q 3056 4750 3426 4639 
Q 3797 4528 4122 4306 
z
" transform="scale(0.015625)"/>
     <path id="DejaVuSans-63" d="M 3122 3366 
L 3122 2828 
Q 2878 2963 2633 3030 
Q 2388 3097 2138 3097 
Q 1578 3097 1268 2742 
Q 959 2388 959 1747 
Q 959 1106 1268 751 
Q 1578 397 2138 397 
Q 2388 397 2633 464 
Q 2878 531 3122 666 
L 3122 134 
Q 2881 22 2623 -34 
Q 2366 -91 2075 -91 
Q 1284 -91 818 406 
Q 353 903 353 1747 
Q 353 2603 823 3093 
Q 1294 3584 2113 3584 
Q 2378 3584 2631 3529 
Q 2884 3475 3122 3366 
z
" transform="scale(0.015625)"/>
     <path id="DejaVuSans-79" d="M 2059 -325 
Q 1816 -950 1584 -1140 
Q 1353 -1331 966 -1331 
L 506 -1331 
L 506 -850 
L 844 -850 
Q 1081 -850 1212 -737 
Q 1344 -625 1503 -206 
L 1606 56 
L 191 3500 
L 800 3500 
L 1894 763 
L 2988 3500 
L 3597 3500 
L 2059 -325 
z
" transform="scale(0.015625)"/>
     <path id="DejaVuSans-70" d="M 1159 525 
L 1159 -1331 
L 581 -1331 
L 581 3500 
L 1159 3500 
L 1159 2969 
Q 1341 3281 1617 3432 
Q 1894 3584 2278 3584 
Q 2916 3584 3314 3078 
Q 3713 2572 3713 1747 
Q 3713 922 3314 415 
Q 2916 -91 2278 -91 
Q 1894 -91 1617 61 
Q 1341 213 1159 525 
z
M 3116 1747 
Q 3116 2381 2855 2742 
Q 2594 3103 2138 3103 
Q 1681 3103 1420 2742 
Q 1159 2381 1159 1747 
Q 1159 1113 1420 752 
Q 1681 391 2138 391 
Q 2594 391 2855 752 
Q 3116 1113 3116 1747 
z
" transform="scale(0.015625)"/>
    </defs>
    <use xlink:href="#DejaVuSans-54"/>
    <use xlink:href="#DejaVuSans-65" x="44.083984"/>
    <use xlink:href="#DejaVuSans-6e" x="105.607422"/>
    <use xlink:href="#DejaVuSans-75" x="168.986328"/>
    <use xlink:href="#DejaVuSans-72" x="232.365234"/>
    <use xlink:href="#DejaVuSans-65" x="271.228516"/>
    <use xlink:href="#DejaVuSans-20" x="332.751953"/>
    <use xlink:href="#DejaVuSans-42" x="364.539062"/>
    <use xlink:href="#DejaVuSans-61" x="433.142578"/>
    <use xlink:href="#DejaVuSans-73" x="494.421875"/>
    <use xlink:href="#DejaVuSans-65" x="546.521484"/>
    <use xlink:href="#DejaVuSans-64" x="608.044922"/>
    <use xlink:href="#DejaVuSans-20" x="671.521484"/>
    <use xlink:href="#DejaVuSans-6f" x="703.308594"/>
    <use xlink:href="#DejaVuSans-6e" x="764.490234"/>
    <use xlink:href="#DejaVuSans-20" x="827.869141"/>
    <use xlink:href="#DejaVuSans-43" x="859.65625"/>
    <use xlink:href="#DejaVuSans-6f" x="929.480469"/>
    <use xlink:href="#DejaVuSans-6e" x="990.662109"/>
    <use xlink:href="#DejaVuSans-74" x="1054.041016"/>
    <use xlink:href="#DejaVuSans-72" x="1093.25"/>
    <use xlink:href="#DejaVuSans-61" x="1134.363281"/>
    <use xlink:href="#DejaVuSans-63" x="1195.642578"/>
    <use xlink:href="#DejaVuSans-74" x="1250.623047"/>
    <use xlink:href="#DejaVuSans-20" x="1289.832031"/>
    <use xlink:href="#DejaVuSans-54" x="1321.619141"/>
    <use xlink:href="#DejaVuSans-79" x="1367.078125"/>
    <use xlink:href="#DejaVuSans-70" x="1426.257812"/>
    <use xlink:href="#DejaVuSans-65" x="1489.734375"/>
   </g>
  </g>
 </g>
 <defs>
  <clipPath id="pfb7ed69d26">
   <rect x="53.5" y="66.8" width="313.833333" height="276.84"/>
  </clipPath>
  <clipPath id="p918666619f">
   <rect x="420.833333" y="66.8" width="313.833333" height="276.84"/>
  </clipPath>
  <clipPath id="p9133aa25ed">
   <rect x="788.166667" y="66.8" width="313.833333" height="276.84"/>
  </clipPath>
 </defs>
</svg>
