<?xml version="1.0" encoding="utf-8" standalone="no"?>
<!DOCTYPE svg PUBLIC "-//W3C//DTD SVG 1.1//EN"
  "http://www.w3.org/Graphics/SVG/1.1/DTD/svg11.dtd">
<svg height="288pt" version="1.1" viewBox="0 0 864 288" width="864pt" xmlns="http://www.w3.org/2000/svg" xmlns:xlink="http://www.w3.org/1999/xlink">
 <metadata>
  <rdf:RDF xmlns:cc="http://creativecommons.org/ns#" xmlns:dc="http://purl.org/dc/elements/1.1/" xmlns:rdf="http://www.w3.org/1999/02/22-rdf-syntax-ns#">
   <cc:Work>
    <dc:type rdf:resource="http://purl.org/dc/dcmitype/StillImage"/>
    <dc:date>2022-06-10T00:32:33.947391</dc:date>
    <dc:format>image/svg+xml</dc:format>
    <dc:creator>
     <cc:Agent>
      <dc:title>Matplotlib v3.4.3, https://matplotlib.org/</dc:title>
     </cc:Agent>
    </dc:creator>
   </cc:Work>
  </rdf:RDF>
 </metadata>
 <defs>
  <style type="text/css">*{stroke-linecap:butt;stroke-linejoin:round;}</style>
 </defs>
 <g id="figure_1">
  <g id="patch_1">
   <path d="M 0 288 
L 864 288 
L 864 0 
L 0 0 
z
" style="fill:#ffffff;"/>
  </g>
  <g id="axes_1">
   <g id="patch_2">
    <path d="M 108 252 
L 777.6 252 
L 777.6 34.56 
L 108 34.56 
z
" style="fill:#ffffff;"/>
   </g>
   <g id="matplotlib.axis_1">
    <g id="xtick_1">
     <g id="line2d_1">
      <defs>
       <path d="M 0 0 
L 0 3.5 
" id="m87184b60a6" style="stroke:#000000;stroke-width:0.8;"/>
      </defs>
      <g>
       <use style="stroke:#000000;stroke-width:0.8;" x="138.436364" xlink:href="#m87184b60a6" y="252"/>
      </g>
     </g>
     <g id="text_1">
      <!-- 0 -->
      <g transform="translate(135.255114 266.598437)scale(0.1 -0.1)">
       <defs>
        <path d="M 2034 4250 
Q 1547 4250 1301 3770 
Q 1056 3291 1056 2328 
Q 1056 1369 1301 889 
Q 1547 409 2034 409 
Q 2525 409 2770 889 
Q 3016 1369 3016 2328 
Q 3016 3291 2770 3770 
Q 2525 4250 2034 4250 
z
M 2034 4750 
Q 2819 4750 3233 4129 
Q 3647 3509 3647 2328 
Q 3647 1150 3233 529 
Q 2819 -91 2034 -91 
Q 1250 -91 836 529 
Q 422 1150 422 2328 
Q 422 3509 836 4129 
Q 1250 4750 2034 4750 
z
" id="DejaVuSans-30" transform="scale(0.015625)"/>
       </defs>
       <use xlink:href="#DejaVuSans-30"/>
      </g>
     </g>
    </g>
    <g id="xtick_2">
     <g id="line2d_2">
      <g>
       <use style="stroke:#000000;stroke-width:0.8;" x="213.402777" xlink:href="#m87184b60a6" y="252"/>
      </g>
     </g>
     <g id="text_2">
      <!-- 25 -->
      <g transform="translate(207.040277 266.598437)scale(0.1 -0.1)">
       <defs>
        <path d="M 1228 531 
L 3431 531 
L 3431 0 
L 469 0 
L 469 531 
Q 828 903 1448 1529 
Q 2069 2156 2228 2338 
Q 2531 2678 2651 2914 
Q 2772 3150 2772 3378 
Q 2772 3750 2511 3984 
Q 2250 4219 1831 4219 
Q 1534 4219 1204 4116 
Q 875 4013 500 3803 
L 500 4441 
Q 881 4594 1212 4672 
Q 1544 4750 1819 4750 
Q 2544 4750 2975 4387 
Q 3406 4025 3406 3419 
Q 3406 3131 3298 2873 
Q 3191 2616 2906 2266 
Q 2828 2175 2409 1742 
Q 1991 1309 1228 531 
z
" id="DejaVuSans-32" transform="scale(0.015625)"/>
        <path d="M 691 4666 
L 3169 4666 
L 3169 4134 
L 1269 4134 
L 1269 2991 
Q 1406 3038 1543 3061 
Q 1681 3084 1819 3084 
Q 2600 3084 3056 2656 
Q 3513 2228 3513 1497 
Q 3513 744 3044 326 
Q 2575 -91 1722 -91 
Q 1428 -91 1123 -41 
Q 819 9 494 109 
L 494 744 
Q 775 591 1075 516 
Q 1375 441 1709 441 
Q 2250 441 2565 725 
Q 2881 1009 2881 1497 
Q 2881 1984 2565 2268 
Q 2250 2553 1709 2553 
Q 1456 2553 1204 2497 
Q 953 2441 691 2322 
L 691 4666 
z
" id="DejaVuSans-35" transform="scale(0.015625)"/>
       </defs>
       <use xlink:href="#DejaVuSans-32"/>
       <use x="63.623047" xlink:href="#DejaVuSans-35"/>
      </g>
     </g>
    </g>
    <g id="xtick_3">
     <g id="line2d_3">
      <g>
       <use style="stroke:#000000;stroke-width:0.8;" x="288.369189" xlink:href="#m87184b60a6" y="252"/>
      </g>
     </g>
     <g id="text_3">
      <!-- 50 -->
      <g transform="translate(282.006689 266.598437)scale(0.1 -0.1)">
       <use xlink:href="#DejaVuSans-35"/>
       <use x="63.623047" xlink:href="#DejaVuSans-30"/>
      </g>
     </g>
    </g>
    <g id="xtick_4">
     <g id="line2d_4">
      <g>
       <use style="stroke:#000000;stroke-width:0.8;" x="363.335602" xlink:href="#m87184b60a6" y="252"/>
      </g>
     </g>
     <g id="text_4">
      <!-- 75 -->
      <g transform="translate(356.973102 266.598437)scale(0.1 -0.1)">
       <defs>
        <path d="M 525 4666 
L 3525 4666 
L 3525 4397 
L 1831 0 
L 1172 0 
L 2766 4134 
L 525 4134 
L 525 4666 
z
" id="DejaVuSans-37" transform="scale(0.015625)"/>
       </defs>
       <use xlink:href="#DejaVuSans-37"/>
       <use x="63.623047" xlink:href="#DejaVuSans-35"/>
      </g>
     </g>
    </g>
    <g id="xtick_5">
     <g id="line2d_5">
      <g>
       <use style="stroke:#000000;stroke-width:0.8;" x="438.302015" xlink:href="#m87184b60a6" y="252"/>
      </g>
     </g>
     <g id="text_5">
      <!-- 100 -->
      <g transform="translate(428.758265 266.598437)scale(0.1 -0.1)">
       <defs>
        <path d="M 794 531 
L 1825 531 
L 1825 4091 
L 703 3866 
L 703 4441 
L 1819 4666 
L 2450 4666 
L 2450 531 
L 3481 531 
L 3481 0 
L 794 0 
L 794 531 
z
" id="DejaVuSans-31" transform="scale(0.015625)"/>
       </defs>
       <use xlink:href="#DejaVuSans-31"/>
       <use x="63.623047" xlink:href="#DejaVuSans-30"/>
       <use x="127.246094" xlink:href="#DejaVuSans-30"/>
      </g>
     </g>
    </g>
    <g id="xtick_6">
     <g id="line2d_6">
      <g>
       <use style="stroke:#000000;stroke-width:0.8;" x="513.268428" xlink:href="#m87184b60a6" y="252"/>
      </g>
     </g>
     <g id="text_6">
      <!-- 125 -->
      <g transform="translate(503.724678 266.598437)scale(0.1 -0.1)">
       <use xlink:href="#DejaVuSans-31"/>
       <use x="63.623047" xlink:href="#DejaVuSans-32"/>
       <use x="127.246094" xlink:href="#DejaVuSans-35"/>
      </g>
     </g>
    </g>
    <g id="xtick_7">
     <g id="line2d_7">
      <g>
       <use style="stroke:#000000;stroke-width:0.8;" x="588.234841" xlink:href="#m87184b60a6" y="252"/>
      </g>
     </g>
     <g id="text_7">
      <!-- 150 -->
      <g transform="translate(578.691091 266.598437)scale(0.1 -0.1)">
       <use xlink:href="#DejaVuSans-31"/>
       <use x="63.623047" xlink:href="#DejaVuSans-35"/>
       <use x="127.246094" xlink:href="#DejaVuSans-30"/>
      </g>
     </g>
    </g>
    <g id="xtick_8">
     <g id="line2d_8">
      <g>
       <use style="stroke:#000000;stroke-width:0.8;" x="663.201254" xlink:href="#m87184b60a6" y="252"/>
      </g>
     </g>
     <g id="text_8">
      <!-- 175 -->
      <g transform="translate(653.657504 266.598437)scale(0.1 -0.1)">
       <use xlink:href="#DejaVuSans-31"/>
       <use x="63.623047" xlink:href="#DejaVuSans-37"/>
       <use x="127.246094" xlink:href="#DejaVuSans-35"/>
      </g>
     </g>
    </g>
    <g id="xtick_9">
     <g id="line2d_9">
      <g>
       <use style="stroke:#000000;stroke-width:0.8;" x="738.167667" xlink:href="#m87184b60a6" y="252"/>
      </g>
     </g>
     <g id="text_9">
      <!-- 200 -->
      <g transform="translate(728.623917 266.598437)scale(0.1 -0.1)">
       <use xlink:href="#DejaVuSans-32"/>
       <use x="63.623047" xlink:href="#DejaVuSans-30"/>
       <use x="127.246094" xlink:href="#DejaVuSans-30"/>
      </g>
     </g>
    </g>
    <g id="text_10">
     <!-- Spectral bands -->
     <g transform="translate(405.382031 280.276563)scale(0.1 -0.1)">
      <defs>
       <path d="M 3425 4513 
L 3425 3897 
Q 3066 4069 2747 4153 
Q 2428 4238 2131 4238 
Q 1616 4238 1336 4038 
Q 1056 3838 1056 3469 
Q 1056 3159 1242 3001 
Q 1428 2844 1947 2747 
L 2328 2669 
Q 3034 2534 3370 2195 
Q 3706 1856 3706 1288 
Q 3706 609 3251 259 
Q 2797 -91 1919 -91 
Q 1588 -91 1214 -16 
Q 841 59 441 206 
L 441 856 
Q 825 641 1194 531 
Q 1563 422 1919 422 
Q 2459 422 2753 634 
Q 3047 847 3047 1241 
Q 3047 1584 2836 1778 
Q 2625 1972 2144 2069 
L 1759 2144 
Q 1053 2284 737 2584 
Q 422 2884 422 3419 
Q 422 4038 858 4394 
Q 1294 4750 2059 4750 
Q 2388 4750 2728 4690 
Q 3069 4631 3425 4513 
z
" id="DejaVuSans-53" transform="scale(0.015625)"/>
       <path d="M 1159 525 
L 1159 -1331 
L 581 -1331 
L 581 3500 
L 1159 3500 
L 1159 2969 
Q 1341 3281 1617 3432 
Q 1894 3584 2278 3584 
Q 2916 3584 3314 3078 
Q 3713 2572 3713 1747 
Q 3713 922 3314 415 
Q 2916 -91 2278 -91 
Q 1894 -91 1617 61 
Q 1341 213 1159 525 
z
M 3116 1747 
Q 3116 2381 2855 2742 
Q 2594 3103 2138 3103 
Q 1681 3103 1420 2742 
Q 1159 2381 1159 1747 
Q 1159 1113 1420 752 
Q 1681 391 2138 391 
Q 2594 391 2855 752 
Q 3116 1113 3116 1747 
z
" id="DejaVuSans-70" transform="scale(0.015625)"/>
       <path d="M 3597 1894 
L 3597 1613 
L 953 1613 
Q 991 1019 1311 708 
Q 1631 397 2203 397 
Q 2534 397 2845 478 
Q 3156 559 3463 722 
L 3463 178 
Q 3153 47 2828 -22 
Q 2503 -91 2169 -91 
Q 1331 -91 842 396 
Q 353 884 353 1716 
Q 353 2575 817 3079 
Q 1281 3584 2069 3584 
Q 2775 3584 3186 3129 
Q 3597 2675 3597 1894 
z
M 3022 2063 
Q 3016 2534 2758 2815 
Q 2500 3097 2075 3097 
Q 1594 3097 1305 2825 
Q 1016 2553 972 2059 
L 3022 2063 
z
" id="DejaVuSans-65" transform="scale(0.015625)"/>
       <path d="M 3122 3366 
L 3122 2828 
Q 2878 2963 2633 3030 
Q 2388 3097 2138 3097 
Q 1578 3097 1268 2742 
Q 959 2388 959 1747 
Q 959 1106 1268 751 
Q 1578 397 2138 397 
Q 2388 397 2633 464 
Q 2878 531 3122 666 
L 3122 134 
Q 2881 22 2623 -34 
Q 2366 -91 2075 -91 
Q 1284 -91 818 406 
Q 353 903 353 1747 
Q 353 2603 823 3093 
Q 1294 3584 2113 3584 
Q 2378 3584 2631 3529 
Q 2884 3475 3122 3366 
z
" id="DejaVuSans-63" transform="scale(0.015625)"/>
       <path d="M 1172 4494 
L 1172 3500 
L 2356 3500 
L 2356 3053 
L 1172 3053 
L 1172 1153 
Q 1172 725 1289 603 
Q 1406 481 1766 481 
L 2356 481 
L 2356 0 
L 1766 0 
Q 1100 0 847 248 
Q 594 497 594 1153 
L 594 3053 
L 172 3053 
L 172 3500 
L 594 3500 
L 594 4494 
L 1172 4494 
z
" id="DejaVuSans-74" transform="scale(0.015625)"/>
       <path d="M 2631 2963 
Q 2534 3019 2420 3045 
Q 2306 3072 2169 3072 
Q 1681 3072 1420 2755 
Q 1159 2438 1159 1844 
L 1159 0 
L 581 0 
L 581 3500 
L 1159 3500 
L 1159 2956 
Q 1341 3275 1631 3429 
Q 1922 3584 2338 3584 
Q 2397 3584 2469 3576 
Q 2541 3569 2628 3553 
L 2631 2963 
z
" id="DejaVuSans-72" transform="scale(0.015625)"/>
       <path d="M 2194 1759 
Q 1497 1759 1228 1600 
Q 959 1441 959 1056 
Q 959 750 1161 570 
Q 1363 391 1709 391 
Q 2188 391 2477 730 
Q 2766 1069 2766 1631 
L 2766 1759 
L 2194 1759 
z
M 3341 1997 
L 3341 0 
L 2766 0 
L 2766 531 
Q 2569 213 2275 61 
Q 1981 -91 1556 -91 
Q 1019 -91 701 211 
Q 384 513 384 1019 
Q 384 1609 779 1909 
Q 1175 2209 1959 2209 
L 2766 2209 
L 2766 2266 
Q 2766 2663 2505 2880 
Q 2244 3097 1772 3097 
Q 1472 3097 1187 3025 
Q 903 2953 641 2809 
L 641 3341 
Q 956 3463 1253 3523 
Q 1550 3584 1831 3584 
Q 2591 3584 2966 3190 
Q 3341 2797 3341 1997 
z
" id="DejaVuSans-61" transform="scale(0.015625)"/>
       <path d="M 603 4863 
L 1178 4863 
L 1178 0 
L 603 0 
L 603 4863 
z
" id="DejaVuSans-6c" transform="scale(0.015625)"/>
       <path id="DejaVuSans-20" transform="scale(0.015625)"/>
       <path d="M 3116 1747 
Q 3116 2381 2855 2742 
Q 2594 3103 2138 3103 
Q 1681 3103 1420 2742 
Q 1159 2381 1159 1747 
Q 1159 1113 1420 752 
Q 1681 391 2138 391 
Q 2594 391 2855 752 
Q 3116 1113 3116 1747 
z
M 1159 2969 
Q 1341 3281 1617 3432 
Q 1894 3584 2278 3584 
Q 2916 3584 3314 3078 
Q 3713 2572 3713 1747 
Q 3713 922 3314 415 
Q 2916 -91 2278 -91 
Q 1894 -91 1617 61 
Q 1341 213 1159 525 
L 1159 0 
L 581 0 
L 581 4863 
L 1159 4863 
L 1159 2969 
z
" id="DejaVuSans-62" transform="scale(0.015625)"/>
       <path d="M 3513 2113 
L 3513 0 
L 2938 0 
L 2938 2094 
Q 2938 2591 2744 2837 
Q 2550 3084 2163 3084 
Q 1697 3084 1428 2787 
Q 1159 2491 1159 1978 
L 1159 0 
L 581 0 
L 581 3500 
L 1159 3500 
L 1159 2956 
Q 1366 3272 1645 3428 
Q 1925 3584 2291 3584 
Q 2894 3584 3203 3211 
Q 3513 2838 3513 2113 
z
" id="DejaVuSans-6e" transform="scale(0.015625)"/>
       <path d="M 2906 2969 
L 2906 4863 
L 3481 4863 
L 3481 0 
L 2906 0 
L 2906 525 
Q 2725 213 2448 61 
Q 2172 -91 1784 -91 
Q 1150 -91 751 415 
Q 353 922 353 1747 
Q 353 2572 751 3078 
Q 1150 3584 1784 3584 
Q 2172 3584 2448 3432 
Q 2725 3281 2906 2969 
z
M 947 1747 
Q 947 1113 1208 752 
Q 1469 391 1925 391 
Q 2381 391 2643 752 
Q 2906 1113 2906 1747 
Q 2906 2381 2643 2742 
Q 2381 3103 1925 3103 
Q 1469 3103 1208 2742 
Q 947 2381 947 1747 
z
" id="DejaVuSans-64" transform="scale(0.015625)"/>
       <path d="M 2834 3397 
L 2834 2853 
Q 2591 2978 2328 3040 
Q 2066 3103 1784 3103 
Q 1356 3103 1142 2972 
Q 928 2841 928 2578 
Q 928 2378 1081 2264 
Q 1234 2150 1697 2047 
L 1894 2003 
Q 2506 1872 2764 1633 
Q 3022 1394 3022 966 
Q 3022 478 2636 193 
Q 2250 -91 1575 -91 
Q 1294 -91 989 -36 
Q 684 19 347 128 
L 347 722 
Q 666 556 975 473 
Q 1284 391 1588 391 
Q 1994 391 2212 530 
Q 2431 669 2431 922 
Q 2431 1156 2273 1281 
Q 2116 1406 1581 1522 
L 1381 1569 
Q 847 1681 609 1914 
Q 372 2147 372 2553 
Q 372 3047 722 3315 
Q 1072 3584 1716 3584 
Q 2034 3584 2315 3537 
Q 2597 3491 2834 3397 
z
" id="DejaVuSans-73" transform="scale(0.015625)"/>
      </defs>
      <use xlink:href="#DejaVuSans-53"/>
      <use x="63.476562" xlink:href="#DejaVuSans-70"/>
      <use x="126.953125" xlink:href="#DejaVuSans-65"/>
      <use x="188.476562" xlink:href="#DejaVuSans-63"/>
      <use x="243.457031" xlink:href="#DejaVuSans-74"/>
      <use x="282.666016" xlink:href="#DejaVuSans-72"/>
      <use x="323.779297" xlink:href="#DejaVuSans-61"/>
      <use x="385.058594" xlink:href="#DejaVuSans-6c"/>
      <use x="412.841797" xlink:href="#DejaVuSans-20"/>
      <use x="444.628906" xlink:href="#DejaVuSans-62"/>
      <use x="508.105469" xlink:href="#DejaVuSans-61"/>
      <use x="569.384766" xlink:href="#DejaVuSans-6e"/>
      <use x="632.763672" xlink:href="#DejaVuSans-64"/>
      <use x="696.240234" xlink:href="#DejaVuSans-73"/>
     </g>
    </g>
   </g>
   <g id="matplotlib.axis_2">
    <g id="ytick_1">
     <g id="line2d_10">
      <defs>
       <path d="M 0 0 
L -3.5 0 
" id="m7c14047c21" style="stroke:#000000;stroke-width:0.8;"/>
      </defs>
      <g>
       <use style="stroke:#000000;stroke-width:0.8;" x="108" xlink:href="#m7c14047c21" y="242.163889"/>
      </g>
     </g>
     <g id="text_11">
      <!-- 0 -->
      <g transform="translate(94.6375 245.963108)scale(0.1 -0.1)">
       <use xlink:href="#DejaVuSans-30"/>
      </g>
     </g>
    </g>
    <g id="ytick_2">
     <g id="line2d_11">
      <g>
       <use style="stroke:#000000;stroke-width:0.8;" x="108" xlink:href="#m7c14047c21" y="215.284346"/>
      </g>
     </g>
     <g id="text_12">
      <!-- 1000 -->
      <g transform="translate(75.55 219.083565)scale(0.1 -0.1)">
       <use xlink:href="#DejaVuSans-31"/>
       <use x="63.623047" xlink:href="#DejaVuSans-30"/>
       <use x="127.246094" xlink:href="#DejaVuSans-30"/>
       <use x="190.869141" xlink:href="#DejaVuSans-30"/>
      </g>
     </g>
    </g>
    <g id="ytick_3">
     <g id="line2d_12">
      <g>
       <use style="stroke:#000000;stroke-width:0.8;" x="108" xlink:href="#m7c14047c21" y="188.404803"/>
      </g>
     </g>
     <g id="text_13">
      <!-- 2000 -->
      <g transform="translate(75.55 192.204022)scale(0.1 -0.1)">
       <use xlink:href="#DejaVuSans-32"/>
       <use x="63.623047" xlink:href="#DejaVuSans-30"/>
       <use x="127.246094" xlink:href="#DejaVuSans-30"/>
       <use x="190.869141" xlink:href="#DejaVuSans-30"/>
      </g>
     </g>
    </g>
    <g id="ytick_4">
     <g id="line2d_13">
      <g>
       <use style="stroke:#000000;stroke-width:0.8;" x="108" xlink:href="#m7c14047c21" y="161.52526"/>
      </g>
     </g>
     <g id="text_14">
      <!-- 3000 -->
      <g transform="translate(75.55 165.324479)scale(0.1 -0.1)">
       <defs>
        <path d="M 2597 2516 
Q 3050 2419 3304 2112 
Q 3559 1806 3559 1356 
Q 3559 666 3084 287 
Q 2609 -91 1734 -91 
Q 1441 -91 1130 -33 
Q 819 25 488 141 
L 488 750 
Q 750 597 1062 519 
Q 1375 441 1716 441 
Q 2309 441 2620 675 
Q 2931 909 2931 1356 
Q 2931 1769 2642 2001 
Q 2353 2234 1838 2234 
L 1294 2234 
L 1294 2753 
L 1863 2753 
Q 2328 2753 2575 2939 
Q 2822 3125 2822 3475 
Q 2822 3834 2567 4026 
Q 2313 4219 1838 4219 
Q 1578 4219 1281 4162 
Q 984 4106 628 3988 
L 628 4550 
Q 988 4650 1302 4700 
Q 1616 4750 1894 4750 
Q 2613 4750 3031 4423 
Q 3450 4097 3450 3541 
Q 3450 3153 3228 2886 
Q 3006 2619 2597 2516 
z
" id="DejaVuSans-33" transform="scale(0.015625)"/>
       </defs>
       <use xlink:href="#DejaVuSans-33"/>
       <use x="63.623047" xlink:href="#DejaVuSans-30"/>
       <use x="127.246094" xlink:href="#DejaVuSans-30"/>
       <use x="190.869141" xlink:href="#DejaVuSans-30"/>
      </g>
     </g>
    </g>
    <g id="ytick_5">
     <g id="line2d_14">
      <g>
       <use style="stroke:#000000;stroke-width:0.8;" x="108" xlink:href="#m7c14047c21" y="134.645717"/>
      </g>
     </g>
     <g id="text_15">
      <!-- 4000 -->
      <g transform="translate(75.55 138.444936)scale(0.1 -0.1)">
       <defs>
        <path d="M 2419 4116 
L 825 1625 
L 2419 1625 
L 2419 4116 
z
M 2253 4666 
L 3047 4666 
L 3047 1625 
L 3713 1625 
L 3713 1100 
L 3047 1100 
L 3047 0 
L 2419 0 
L 2419 1100 
L 313 1100 
L 313 1709 
L 2253 4666 
z
" id="DejaVuSans-34" transform="scale(0.015625)"/>
       </defs>
       <use xlink:href="#DejaVuSans-34"/>
       <use x="63.623047" xlink:href="#DejaVuSans-30"/>
       <use x="127.246094" xlink:href="#DejaVuSans-30"/>
       <use x="190.869141" xlink:href="#DejaVuSans-30"/>
      </g>
     </g>
    </g>
    <g id="ytick_6">
     <g id="line2d_15">
      <g>
       <use style="stroke:#000000;stroke-width:0.8;" x="108" xlink:href="#m7c14047c21" y="107.766174"/>
      </g>
     </g>
     <g id="text_16">
      <!-- 5000 -->
      <g transform="translate(75.55 111.565393)scale(0.1 -0.1)">
       <use xlink:href="#DejaVuSans-35"/>
       <use x="63.623047" xlink:href="#DejaVuSans-30"/>
       <use x="127.246094" xlink:href="#DejaVuSans-30"/>
       <use x="190.869141" xlink:href="#DejaVuSans-30"/>
      </g>
     </g>
    </g>
    <g id="ytick_7">
     <g id="line2d_16">
      <g>
       <use style="stroke:#000000;stroke-width:0.8;" x="108" xlink:href="#m7c14047c21" y="80.886631"/>
      </g>
     </g>
     <g id="text_17">
      <!-- 6000 -->
      <g transform="translate(75.55 84.68585)scale(0.1 -0.1)">
       <defs>
        <path d="M 2113 2584 
Q 1688 2584 1439 2293 
Q 1191 2003 1191 1497 
Q 1191 994 1439 701 
Q 1688 409 2113 409 
Q 2538 409 2786 701 
Q 3034 994 3034 1497 
Q 3034 2003 2786 2293 
Q 2538 2584 2113 2584 
z
M 3366 4563 
L 3366 3988 
Q 3128 4100 2886 4159 
Q 2644 4219 2406 4219 
Q 1781 4219 1451 3797 
Q 1122 3375 1075 2522 
Q 1259 2794 1537 2939 
Q 1816 3084 2150 3084 
Q 2853 3084 3261 2657 
Q 3669 2231 3669 1497 
Q 3669 778 3244 343 
Q 2819 -91 2113 -91 
Q 1303 -91 875 529 
Q 447 1150 447 2328 
Q 447 3434 972 4092 
Q 1497 4750 2381 4750 
Q 2619 4750 2861 4703 
Q 3103 4656 3366 4563 
z
" id="DejaVuSans-36" transform="scale(0.015625)"/>
       </defs>
       <use xlink:href="#DejaVuSans-36"/>
       <use x="63.623047" xlink:href="#DejaVuSans-30"/>
       <use x="127.246094" xlink:href="#DejaVuSans-30"/>
       <use x="190.869141" xlink:href="#DejaVuSans-30"/>
      </g>
     </g>
    </g>
    <g id="ytick_8">
     <g id="line2d_17">
      <g>
       <use style="stroke:#000000;stroke-width:0.8;" x="108" xlink:href="#m7c14047c21" y="54.007088"/>
      </g>
     </g>
     <g id="text_18">
      <!-- 7000 -->
      <g transform="translate(75.55 57.806306)scale(0.1 -0.1)">
       <use xlink:href="#DejaVuSans-37"/>
       <use x="63.623047" xlink:href="#DejaVuSans-30"/>
       <use x="127.246094" xlink:href="#DejaVuSans-30"/>
       <use x="190.869141" xlink:href="#DejaVuSans-30"/>
      </g>
     </g>
    </g>
    <g id="text_19">
     <!-- Radiance values -->
     <g transform="translate(69.470312 184.179219)rotate(-90)scale(0.1 -0.1)">
      <defs>
       <path d="M 2841 2188 
Q 3044 2119 3236 1894 
Q 3428 1669 3622 1275 
L 4263 0 
L 3584 0 
L 2988 1197 
Q 2756 1666 2539 1819 
Q 2322 1972 1947 1972 
L 1259 1972 
L 1259 0 
L 628 0 
L 628 4666 
L 2053 4666 
Q 2853 4666 3247 4331 
Q 3641 3997 3641 3322 
Q 3641 2881 3436 2590 
Q 3231 2300 2841 2188 
z
M 1259 4147 
L 1259 2491 
L 2053 2491 
Q 2509 2491 2742 2702 
Q 2975 2913 2975 3322 
Q 2975 3731 2742 3939 
Q 2509 4147 2053 4147 
L 1259 4147 
z
" id="DejaVuSans-52" transform="scale(0.015625)"/>
       <path d="M 603 3500 
L 1178 3500 
L 1178 0 
L 603 0 
L 603 3500 
z
M 603 4863 
L 1178 4863 
L 1178 4134 
L 603 4134 
L 603 4863 
z
" id="DejaVuSans-69" transform="scale(0.015625)"/>
       <path d="M 191 3500 
L 800 3500 
L 1894 563 
L 2988 3500 
L 3597 3500 
L 2284 0 
L 1503 0 
L 191 3500 
z
" id="DejaVuSans-76" transform="scale(0.015625)"/>
       <path d="M 544 1381 
L 544 3500 
L 1119 3500 
L 1119 1403 
Q 1119 906 1312 657 
Q 1506 409 1894 409 
Q 2359 409 2629 706 
Q 2900 1003 2900 1516 
L 2900 3500 
L 3475 3500 
L 3475 0 
L 2900 0 
L 2900 538 
Q 2691 219 2414 64 
Q 2138 -91 1772 -91 
Q 1169 -91 856 284 
Q 544 659 544 1381 
z
M 1991 3584 
L 1991 3584 
z
" id="DejaVuSans-75" transform="scale(0.015625)"/>
      </defs>
      <use xlink:href="#DejaVuSans-52"/>
      <use x="67.232422" xlink:href="#DejaVuSans-61"/>
      <use x="128.511719" xlink:href="#DejaVuSans-64"/>
      <use x="191.988281" xlink:href="#DejaVuSans-69"/>
      <use x="219.771484" xlink:href="#DejaVuSans-61"/>
      <use x="281.050781" xlink:href="#DejaVuSans-6e"/>
      <use x="344.429688" xlink:href="#DejaVuSans-63"/>
      <use x="399.410156" xlink:href="#DejaVuSans-65"/>
      <use x="460.933594" xlink:href="#DejaVuSans-20"/>
      <use x="492.720703" xlink:href="#DejaVuSans-76"/>
      <use x="551.900391" xlink:href="#DejaVuSans-61"/>
      <use x="613.179688" xlink:href="#DejaVuSans-6c"/>
      <use x="640.962891" xlink:href="#DejaVuSans-75"/>
      <use x="704.341797" xlink:href="#DejaVuSans-65"/>
      <use x="765.865234" xlink:href="#DejaVuSans-73"/>
     </g>
    </g>
   </g>
   <g id="line2d_18">
    <path clip-path="url(#padce678f9d)" d="M 138.436364 231.600745 
L 141.43502 228.822209 
L 144.433677 223.272732 
L 147.432333 211.389688 
L 150.43099 203.302215 
L 153.429646 201.924722 
L 156.428303 204.438788 
L 159.426959 201.619607 
L 162.425616 197.190972 
L 165.424272 196.881225 
L 168.422929 198.32451 
L 171.421585 199.053772 
L 174.420242 202.091775 
L 180.417555 202.538871 
L 183.416211 202.884863 
L 186.414868 198.71449 
L 189.413524 195.895875 
L 192.412181 195.170066 
L 195.410837 196.268231 
L 198.409494 199.743275 
L 201.40815 203.427223 
L 204.406807 206.108651 
L 207.405464 207.975237 
L 210.40412 209.060951 
L 213.402777 211.376353 
L 216.401433 213.105751 
L 219.40009 213.778612 
L 222.398746 215.440338 
L 225.397403 217.373871 
L 228.396059 217.581926 
L 231.394716 218.135151 
L 234.393372 217.550401 
L 237.392029 218.289767 
L 240.390685 219.338118 
L 243.389342 215.908881 
L 246.387998 201.350222 
L 252.385311 159.631979 
L 258.382624 73.739671 
L 261.381281 51.821106 
L 264.379937 124.140228 
L 267.378594 60.553541 
L 270.37725 44.443636 
L 273.375907 51.106027 
L 276.374563 54.679629 
L 279.37322 62.297085 
L 282.371876 90.222731 
L 285.370533 83.715558 
L 288.369189 71.558716 
L 291.367846 70.346986 
L 294.366502 75.079433 
L 297.365159 77.533964 
L 300.363815 77.358344 
L 303.362472 81.147007 
L 306.361129 107.329243 
L 309.359785 120.543212 
L 312.358442 129.729747 
L 315.357098 128.060512 
L 318.355755 190.851407 
L 321.354411 189.5099 
L 324.353068 187.776237 
L 327.351724 173.802267 
L 330.350381 152.035675 
L 333.349037 143.866482 
L 336.347694 133.432069 
L 339.34635 132.893729 
L 342.345007 132.015836 
L 345.343663 130.686091 
L 348.34232 130.067567 
L 351.340976 130.087932 
L 354.339633 130.839846 
L 357.338289 133.73094 
L 360.336946 137.020261 
L 363.335602 138.908859 
L 366.334259 144.639229 
L 369.332915 155.813929 
L 372.331572 170.447892 
L 375.330228 207.029291 
L 378.328885 222.411542 
L 381.327541 216.469 
L 384.326198 218.282908 
L 387.324854 211.219341 
L 390.323511 196.598541 
L 393.322167 192.156386 
L 396.320824 194.040056 
L 399.319481 191.763554 
L 402.318137 193.974731 
L 405.316794 191.834544 
L 408.31545 189.495643 
L 411.314107 187.651746 
L 414.312763 187.537799 
L 417.31142 189.053427 
L 420.310076 195.500019 
L 423.308733 199.494403 
L 426.307389 191.939051 
L 429.306046 199.378933 
L 432.304702 196.100317 
L 435.303359 194.109571 
L 438.302015 196.381034 
L 441.300672 202.562272 
L 447.297985 216.286141 
L 450.296641 224.287653 
L 453.295298 233.12457 
L 456.293954 241.49528 
L 459.292611 241.868755 
L 462.291267 241.585162 
L 465.289924 241.491962 
L 468.28858 241.258686 
L 471.287237 240.491556 
L 477.28455 240.521312 
L 480.283206 239.647893 
L 483.281863 237.842256 
L 486.280519 236.611279 
L 489.279176 235.253007 
L 492.277833 234.123981 
L 498.275146 232.470747 
L 501.273802 231.867242 
L 504.272459 231.640874 
L 507.271115 232.026368 
L 510.269772 231.099891 
L 513.268428 230.609508 
L 516.267085 230.906916 
L 522.264398 229.634458 
L 525.263054 229.742566 
L 528.261711 230.032759 
L 531.260367 229.864243 
L 537.25768 230.262753 
L 543.254993 231.095564 
L 549.252306 232.236796 
L 555.249619 233.874752 
L 558.248276 234.498451 
L 561.246932 234.964596 
L 564.245589 235.915434 
L 567.244245 237.045026 
L 573.241558 239.611082 
L 576.240215 241.177863 
L 579.238871 241.81003 
L 582.237528 242.010023 
L 585.236185 241.916012 
L 591.233498 241.030868 
L 594.232154 240.89561 
L 597.230811 241.592352 
L 600.229467 241.79817 
L 603.228124 241.400483 
L 606.22678 240.493769 
L 609.225437 240.199863 
L 612.224093 240.623914 
L 615.22275 240.718453 
L 618.221406 240.461641 
L 621.220063 239.82983 
L 627.217376 239.294993 
L 639.212002 238.711337 
L 645.209315 238.85156 
L 654.205284 238.74854 
L 657.203941 238.874568 
L 660.202597 238.693343 
L 663.201254 238.689779 
L 669.198567 238.986892 
L 687.190506 240.248153 
L 690.189163 240.266085 
L 693.187819 240.58553 
L 696.186476 240.55017 
L 702.183789 241.049734 
L 705.182445 240.997782 
L 708.181102 241.246642 
L 714.178415 241.391769 
L 717.177071 241.38893 
L 723.174384 241.681323 
L 726.173041 241.586919 
L 732.170354 241.866604 
L 735.16901 241.758447 
L 744.16498 242.111998 
L 747.163636 242.087675 
L 747.163636 242.087675 
" style="fill:none;stroke:#1f77b4;stroke-linecap:square;stroke-width:1.5;"/>
   </g>
   <g id="line2d_19">
    <path clip-path="url(#padce678f9d)" d="M 138.436364 231.719738 
L 141.43502 228.595695 
L 144.433677 222.400667 
L 147.432333 209.330438 
L 150.43099 200.376611 
L 153.429646 198.140692 
L 156.428303 199.433149 
L 159.426959 194.299266 
L 162.425616 187.01436 
L 165.424272 184.701057 
L 168.422929 184.692185 
L 171.421585 183.811862 
L 174.420242 185.928506 
L 177.418898 184.076579 
L 180.417555 183.117293 
L 183.416211 184.363697 
L 186.414868 181.0443 
L 189.413524 178.845547 
L 192.412181 177.307878 
L 195.410837 176.632154 
L 198.409494 176.540678 
L 201.40815 175.90587 
L 204.406807 175.692194 
L 207.405464 175.659188 
L 210.40412 174.479606 
L 216.401433 176.231502 
L 219.40009 175.242068 
L 222.398746 175.270513 
L 225.397403 176.572928 
L 228.396059 173.435919 
L 231.394716 173.427761 
L 234.393372 174.255477 
L 237.392029 173.845403 
L 240.390685 177.996294 
L 243.389342 179.931003 
L 246.387998 176.796521 
L 249.386655 177.623469 
L 252.385311 185.659381 
L 255.383968 180.942509 
L 258.382624 175.417726 
L 261.381281 174.17808 
L 264.379937 201.221153 
L 267.378594 179.90856 
L 270.37725 174.12509 
L 273.375907 176.035488 
L 276.374563 176.856502 
L 279.37322 178.906572 
L 282.371876 188.292848 
L 285.370533 185.359476 
L 288.369189 180.573846 
L 291.367846 179.632691 
L 294.366502 180.95406 
L 297.365159 181.398637 
L 300.363815 180.859659 
L 303.362472 181.621928 
L 306.361129 190.856432 
L 309.359785 195.285389 
L 312.358442 198.242949 
L 315.357098 196.69421 
L 318.355755 220.942359 
L 321.354411 219.381093 
L 324.353068 217.193508 
L 327.351724 209.276693 
L 330.350381 198.076659 
L 333.349037 193.717104 
L 336.347694 188.666717 
L 345.343663 189.133847 
L 348.34232 189.640905 
L 351.340976 190.331683 
L 354.339633 191.155142 
L 360.336946 194.113705 
L 363.335602 194.602976 
L 366.334259 196.613255 
L 369.332915 201.072911 
L 372.331572 207.290518 
L 375.330228 224.736866 
L 378.328885 231.998271 
L 381.327541 227.824992 
L 384.326198 227.512299 
L 387.324854 221.427675 
L 390.323511 210.495324 
L 393.322167 206.772198 
L 396.320824 207.503563 
L 399.319481 205.349587 
L 402.318137 206.754988 
L 408.31545 203.594148 
L 411.314107 202.423961 
L 414.312763 202.496592 
L 417.31142 203.730263 
L 420.310076 208.306996 
L 423.308733 210.609036 
L 426.307389 205.483779 
L 429.306046 210.789858 
L 432.304702 208.054079 
L 435.303359 205.986661 
L 438.302015 206.757089 
L 441.300672 210.366296 
L 444.299328 214.468963 
L 447.297985 218.834946 
L 450.296641 224.732663 
L 453.295298 232.823475 
L 456.293954 241.403158 
L 459.292611 241.205167 
L 462.291267 239.949616 
L 465.289924 239.375408 
L 468.28858 238.004716 
L 471.287237 234.132826 
L 474.285893 234.529028 
L 477.28455 234.759433 
L 480.283206 231.383846 
L 483.281863 224.989839 
L 486.280519 221.681526 
L 489.279176 218.723499 
L 492.277833 217.075633 
L 495.276489 216.448064 
L 498.275146 216.185765 
L 501.273802 216.35858 
L 504.272459 217.294406 
L 507.271115 219.42532 
L 510.269772 218.498848 
L 513.268428 218.44068 
L 516.267085 219.829942 
L 522.264398 218.704105 
L 525.263054 219.406229 
L 528.261711 220.337412 
L 531.260367 220.31707 
L 534.259024 220.830116 
L 537.25768 221.174317 
L 543.254993 222.215148 
L 546.25365 223.001769 
L 549.252306 223.630012 
L 555.249619 225.851811 
L 558.248276 226.624711 
L 561.246932 226.992138 
L 564.245589 228.481007 
L 567.244245 230.654843 
L 570.242902 233.31986 
L 573.241558 236.32791 
L 576.240215 239.904016 
L 579.238871 241.39342 
L 585.236185 239.466842 
L 591.233498 230.434313 
L 594.232154 229.474492 
L 597.230811 236.657017 
L 600.229467 238.895573 
L 603.228124 235.448605 
L 606.22678 228.065837 
L 609.225437 226.237382 
L 612.224093 230.219057 
L 615.22275 231.58045 
L 618.221406 230.389702 
L 621.220063 226.889647 
L 624.218719 225.728429 
L 627.217376 225.320593 
L 630.216032 225.1982 
L 633.214689 225.446379 
L 636.213345 225.121654 
L 639.212002 225.222113 
L 642.210658 226.203457 
L 645.209315 227.046515 
L 654.205284 228.117014 
L 657.203941 229.150454 
L 660.202597 228.744597 
L 663.201254 228.586643 
L 666.19991 228.854463 
L 672.197223 229.90826 
L 675.19588 230.55536 
L 681.193193 231.258527 
L 684.19185 231.983863 
L 687.190506 232.51221 
L 690.189163 232.151101 
L 693.187819 233.578038 
L 696.186476 233.091473 
L 699.185132 234.327273 
L 702.183789 235.330552 
L 705.182445 234.74677 
L 708.181102 236.11933 
L 711.179758 236.587792 
L 714.178415 236.651962 
L 717.177071 236.378456 
L 720.175728 237.655969 
L 723.174384 238.208448 
L 726.173041 237.422788 
L 729.171697 238.171419 
L 732.170354 239.734031 
L 735.16901 238.609279 
L 741.166323 240.853453 
L 744.16498 241.705962 
L 747.163636 241.436177 
L 747.163636 241.436177 
" style="fill:none;stroke:#ff7f0e;stroke-linecap:square;stroke-width:1.5;"/>
   </g>
   <g id="line2d_20">
    <path clip-path="url(#padce678f9d)" d="M 138.436364 233.41656 
L 141.43502 230.916989 
L 144.433677 225.227767 
L 147.432333 213.615707 
L 150.43099 206.487213 
L 153.429646 205.212072 
L 156.428303 206.923317 
L 159.426959 203.49136 
L 162.425616 198.440211 
L 165.424272 197.421512 
L 168.422929 198.016136 
L 171.421585 197.972883 
L 174.420242 200.07769 
L 177.418898 199.301718 
L 180.417555 199.171406 
L 183.416211 200.530363 
L 186.414868 198.59416 
L 189.413524 197.42644 
L 192.412181 196.752863 
L 195.410837 196.65799 
L 198.409494 196.944457 
L 201.40815 196.814987 
L 204.406807 196.959826 
L 207.405464 197.225962 
L 210.40412 196.705459 
L 216.401433 198.367516 
L 219.40009 197.898567 
L 222.398746 198.089771 
L 225.397403 199.128638 
L 228.396059 197.205697 
L 231.394716 197.318047 
L 234.393372 197.902912 
L 237.392029 197.726428 
L 240.390685 200.54317 
L 243.389342 201.751744 
L 246.387998 199.683284 
L 249.386655 200.118545 
L 252.385311 205.188208 
L 255.383968 202.084221 
L 258.382624 198.440567 
L 261.381281 197.63123 
L 264.379937 215.217358 
L 267.378594 201.364439 
L 270.37725 197.562945 
L 273.375907 198.848267 
L 276.374563 199.35645 
L 279.37322 200.644268 
L 282.371876 206.787265 
L 285.370533 204.861536 
L 288.369189 201.763352 
L 291.367846 201.132866 
L 294.366502 202.007538 
L 297.365159 202.266509 
L 300.363815 201.906861 
L 303.362472 202.36965 
L 306.361129 208.412197 
L 309.359785 211.270734 
L 312.358442 213.177269 
L 315.357098 212.155619 
L 318.355755 228.104105 
L 321.354411 227.074511 
L 324.353068 225.629144 
L 327.351724 220.369443 
L 330.350381 212.95886 
L 333.349037 210.000262 
L 336.347694 206.601573 
L 345.343663 206.763077 
L 351.340976 207.476504 
L 354.339633 207.985983 
L 360.336946 209.885157 
L 363.335602 210.189522 
L 366.334259 211.499324 
L 369.332915 214.455911 
L 372.331572 218.654146 
L 375.330228 230.416135 
L 378.328885 235.286747 
L 381.327541 232.493803 
L 384.326198 232.285835 
L 387.324854 228.167624 
L 390.323511 220.778311 
L 393.322167 218.204295 
L 396.320824 218.684008 
L 399.319481 217.174766 
L 402.318137 218.097133 
L 408.31545 215.880495 
L 411.314107 215.039739 
L 414.312763 215.045997 
L 417.31142 215.851281 
L 420.310076 218.951053 
L 423.308733 220.53406 
L 426.307389 216.915309 
L 429.306046 220.490028 
L 432.304702 218.552756 
L 435.303359 217.093057 
L 438.302015 217.609151 
L 441.300672 220.120329 
L 444.299328 222.942292 
L 447.297985 225.989829 
L 450.296641 230.097374 
L 453.295298 235.674441 
L 456.293954 241.604282 
L 459.292611 241.509474 
L 462.291267 240.685936 
L 465.289924 240.263483 
L 468.28858 239.378468 
L 471.287237 236.829678 
L 474.285893 237.076295 
L 477.28455 237.206997 
L 480.283206 234.953006 
L 483.281863 230.616613 
L 486.280519 228.341222 
L 489.279176 226.270719 
L 492.277833 225.095671 
L 495.276489 224.612942 
L 498.275146 224.38098 
L 501.273802 224.447968 
L 504.272459 225.060199 
L 507.271115 226.504334 
L 510.269772 225.843305 
L 513.268428 225.773593 
L 516.267085 226.720376 
L 522.264398 225.909904 
L 525.263054 226.386959 
L 528.261711 227.023054 
L 531.260367 226.997991 
L 534.259024 227.35271 
L 537.25768 227.582077 
L 543.254993 228.305523 
L 549.252306 229.289334 
L 555.249619 230.844521 
L 558.248276 231.39158 
L 561.246932 231.649221 
L 564.245589 232.688121 
L 567.244245 234.196391 
L 570.242902 236.025983 
L 573.241558 238.110428 
L 576.240215 240.566064 
L 579.238871 241.618938 
L 582.237528 241.12713 
L 585.236185 240.506209 
L 591.233498 235.040162 
L 594.232154 234.396739 
L 597.230811 238.723891 
L 600.229467 240.070754 
L 603.228124 237.888064 
L 606.22678 233.201199 
L 609.225437 231.98507 
L 612.224093 234.458928 
L 615.22275 235.288952 
L 618.221406 234.485872 
L 621.220063 232.173454 
L 624.218719 231.392682 
L 627.217376 231.087864 
L 630.216032 230.973018 
L 633.214689 231.099212 
L 636.213345 230.8643 
L 639.212002 230.91245 
L 645.209315 232.104942 
L 654.205284 232.878385 
L 657.203941 233.612822 
L 663.201254 233.280216 
L 666.19991 233.445417 
L 678.194536 234.792442 
L 681.193193 235.056633 
L 684.19185 235.565918 
L 687.190506 235.932731 
L 690.189163 235.726644 
L 693.187819 236.670995 
L 696.186476 236.398762 
L 699.185132 237.208326 
L 702.183789 237.868318 
L 705.182445 237.527703 
L 708.181102 238.395241 
L 711.179758 238.710662 
L 714.178415 238.769123 
L 717.177071 238.616535 
L 720.175728 239.416664 
L 723.174384 239.771999 
L 726.173041 239.319067 
L 729.171697 239.785422 
L 732.170354 240.721894 
L 735.16901 240.076007 
L 741.166323 241.403448 
L 744.16498 241.901319 
L 747.163636 241.750839 
L 747.163636 241.750839 
" style="fill:none;stroke:#2ca02c;stroke-linecap:square;stroke-width:1.5;"/>
   </g>
   <g id="line2d_21">
    <path clip-path="url(#padce678f9d)" d="M 138.436364 232.810107 
L 141.43502 229.820609 
L 144.433677 223.695467 
L 147.432333 210.466033 
L 150.43099 201.426077 
L 153.429646 199.205991 
L 156.428303 200.450966 
L 159.426959 195.529138 
L 162.425616 188.51569 
L 165.424272 186.242454 
L 168.422929 186.330714 
L 171.421585 185.50788 
L 174.420242 187.552838 
L 177.418898 185.942677 
L 180.417555 185.154131 
L 183.416211 186.43035 
L 186.414868 183.349572 
L 189.413524 181.360697 
L 192.412181 180.054627 
L 195.410837 179.514724 
L 198.409494 179.590053 
L 201.40815 179.153963 
L 204.406807 179.119003 
L 207.405464 179.279596 
L 210.40412 178.291692 
L 216.401433 180.346274 
L 219.40009 179.616187 
L 222.398746 179.845509 
L 225.397403 181.251587 
L 228.396059 178.563061 
L 231.394716 178.729361 
L 234.393372 179.284109 
L 237.392029 179.068028 
L 240.390685 183.0602 
L 243.389342 184.887238 
L 246.387998 182.015541 
L 249.386655 182.784604 
L 252.385311 190.224282 
L 255.383968 185.936435 
L 258.382624 180.945991 
L 261.381281 179.890043 
L 264.379937 204.682965 
L 267.378594 185.297642 
L 270.37725 180.118121 
L 273.375907 181.956659 
L 276.374563 182.802097 
L 279.37322 184.702115 
L 282.371876 193.293797 
L 285.370533 190.698466 
L 288.369189 186.441639 
L 291.367846 185.67546 
L 294.366502 186.94356 
L 297.365159 187.392058 
L 300.363815 186.963391 
L 303.362472 187.68981 
L 306.361129 196.080342 
L 309.359785 200.078233 
L 312.358442 202.757833 
L 315.357098 201.412861 
L 318.355755 223.204188 
L 321.354411 221.82203 
L 324.353068 219.864561 
L 327.351724 212.829319 
L 330.350381 202.847771 
L 333.349037 198.941124 
L 336.347694 194.489563 
L 345.343663 194.988675 
L 348.34232 195.482987 
L 351.340976 196.112605 
L 354.339633 196.871797 
L 360.336946 199.548276 
L 363.335602 200.020396 
L 366.334259 201.822071 
L 369.332915 205.724454 
L 372.331572 211.304632 
L 375.330228 226.771372 
L 378.328885 233.199288 
L 381.327541 229.538958 
L 384.326198 229.289247 
L 387.324854 223.94774 
L 390.323511 214.308676 
L 393.322167 211.003885 
L 396.320824 211.67233 
L 399.319481 209.766791 
L 402.318137 210.998501 
L 408.31545 208.253369 
L 411.314107 207.234557 
L 414.312763 207.287645 
L 417.31142 208.326958 
L 420.310076 212.312926 
L 423.308733 214.339969 
L 426.307389 209.8692 
L 429.306046 214.530351 
L 432.304702 212.085792 
L 435.303359 210.267954 
L 438.302015 210.946309 
L 441.300672 214.143743 
L 444.299328 217.76496 
L 447.297985 221.631412 
L 450.296641 226.85216 
L 453.295298 233.973387 
L 456.293954 241.485137 
L 459.292611 241.334042 
L 462.291267 240.277423 
L 465.289924 239.761403 
L 468.28858 238.592876 
L 471.287237 235.276945 
L 474.285893 235.607431 
L 477.28455 235.796745 
L 480.283206 232.889328 
L 483.281863 227.354716 
L 486.280519 224.491584 
L 489.279176 221.90431 
L 492.277833 220.459814 
L 495.276489 219.898378 
L 498.275146 219.66652 
L 501.273802 219.803914 
L 504.272459 220.613197 
L 507.271115 222.464118 
L 510.269772 221.663501 
L 513.268428 221.601362 
L 516.267085 222.810245 
L 522.264398 221.820899 
L 525.263054 222.432987 
L 528.261711 223.238863 
L 531.260367 223.217927 
L 534.259024 223.671708 
L 537.25768 223.988494 
L 543.254993 224.909286 
L 546.25365 225.593732 
L 549.252306 226.157619 
L 555.249619 228.093741 
L 558.248276 228.767396 
L 561.246932 229.079134 
L 564.245589 230.369539 
L 567.244245 232.252188 
L 570.242902 234.552341 
L 573.241558 237.128413 
L 576.240215 240.212685 
L 579.238871 241.489874 
L 585.236185 239.905175 
L 591.233498 232.392317 
L 594.232154 231.577091 
L 597.230811 237.536492 
L 600.229467 239.394699 
L 603.228124 236.517009 
L 606.22678 230.32539 
L 609.225437 228.785262 
L 612.224093 232.124691 
L 615.22275 233.267606 
L 618.221406 232.274269 
L 621.220063 229.321547 
L 624.218719 228.364514 
L 627.217376 228.030086 
L 630.216032 227.933459 
L 633.214689 228.139009 
L 636.213345 227.871258 
L 639.212002 227.959083 
L 645.209315 229.496314 
L 654.205284 230.475925 
L 657.203941 231.393398 
L 660.202597 231.106985 
L 663.201254 230.960702 
L 666.19991 231.183074 
L 672.197223 232.083165 
L 675.19588 232.619413 
L 681.193193 233.213523 
L 684.19185 233.835993 
L 687.190506 234.290247 
L 690.189163 234.008024 
L 693.187819 235.186596 
L 696.186476 234.81262 
L 699.185132 235.835398 
L 702.183789 236.656828 
L 705.182445 236.195089 
L 708.181102 237.302558 
L 711.179758 237.691156 
L 714.178415 237.744305 
L 717.177071 237.528274 
L 720.175728 238.568185 
L 723.174384 239.016061 
L 726.173041 238.401014 
L 729.171697 239.001726 
L 732.170354 240.238409 
L 735.16901 239.358446 
L 741.166323 241.127908 
L 744.16498 241.7969 
L 747.163636 241.587434 
L 747.163636 241.587434 
" style="fill:none;stroke:#d62728;stroke-linecap:square;stroke-width:1.5;"/>
   </g>
   <g id="line2d_22">
    <path clip-path="url(#padce678f9d)" d="M 138.436364 230.154289 
L 141.43502 226.426144 
L 144.433677 219.633657 
L 147.432333 204.574368 
L 150.43099 194.195798 
L 153.429646 190.543321 
L 156.428303 191.519831 
L 159.426959 184.942156 
L 162.425616 175.76982 
L 165.424272 172.152335 
L 168.422929 170.841521 
L 171.421585 168.576819 
L 174.420242 170.25812 
L 177.418898 167.108868 
L 180.417555 164.802749 
L 183.416211 165.036913 
L 186.414868 159.323885 
L 189.413524 155.51793 
L 192.412181 152.948272 
L 195.410837 151.841009 
L 198.409494 151.92504 
L 201.40815 151.334928 
L 207.405464 150.861024 
L 210.40412 149.025735 
L 216.401433 151.189936 
L 219.40009 149.958747 
L 222.398746 151.510213 
L 225.397403 154.299552 
L 228.396059 151.410242 
L 234.393372 152.2196 
L 237.392029 152.526876 
L 240.390685 156.192 
L 243.389342 151.947228 
L 246.387998 139.090626 
L 249.386655 133.897897 
L 252.385311 143.205549 
L 255.383968 131.600774 
L 258.382624 119.375933 
L 261.381281 115.677429 
L 264.379937 165.723433 
L 267.378594 124.990786 
L 270.37725 113.63266 
L 273.375907 116.768543 
L 276.374563 117.843983 
L 279.37322 121.498662 
L 282.371876 139.043021 
L 285.370533 133.078047 
L 288.369189 123.182751 
L 291.367846 120.997695 
L 294.366502 123.151901 
L 297.365159 123.765921 
L 300.363815 122.471875 
L 303.362472 124.012352 
L 306.361129 142.248711 
L 309.359785 151.095181 
L 312.358442 157.048085 
L 315.357098 154.348374 
L 318.355755 201.658192 
L 321.354411 199.066714 
L 324.353068 195.494094 
L 327.351724 181.372998 
L 330.350381 160.985303 
L 333.349037 153.149233 
L 336.347694 143.933745 
L 342.345007 144.357106 
L 345.343663 144.392887 
L 348.34232 145.130799 
L 351.340976 146.25564 
L 354.339633 147.738958 
L 360.336946 153.475323 
L 363.335602 154.71474 
L 366.334259 158.843534 
L 369.332915 167.450788 
L 372.331572 179.306727 
L 375.330228 211.010451 
L 378.328885 224.224082 
L 381.327541 217.422008 
L 384.326198 217.528363 
L 387.324854 208.265079 
L 390.323511 191.187737 
L 393.322167 185.76323 
L 396.320824 187.493217 
L 399.319481 184.467028 
L 402.318137 186.885153 
L 405.316794 184.510921 
L 408.31545 181.941514 
L 411.314107 179.983367 
L 414.312763 180.030829 
L 417.31142 181.94541 
L 420.310076 189.277535 
L 423.308733 193.119569 
L 426.307389 185.289768 
L 429.306046 193.714659 
L 432.304702 189.759565 
L 435.303359 186.854208 
L 438.302015 188.395127 
L 441.300672 194.291967 
L 444.299328 200.981478 
L 447.297985 207.951759 
L 450.296641 217.083188 
L 456.293954 241.137883 
L 459.292611 241.071728 
L 462.291267 239.7735 
L 465.289924 239.26249 
L 468.28858 237.944909 
L 471.287237 234.160497 
L 474.285893 234.585796 
L 477.28455 234.816859 
L 480.283206 231.445173 
L 483.281863 225.001087 
L 486.280519 221.521481 
L 489.279176 218.29973 
L 492.277833 216.381443 
L 495.276489 215.526092 
L 498.275146 215.06863 
L 501.273802 215.071363 
L 504.272459 215.916298 
L 507.271115 218.039312 
L 510.269772 216.922502 
L 513.268428 216.704073 
L 516.267085 218.000955 
L 522.264398 216.446463 
L 525.263054 217.063652 
L 528.261711 217.970886 
L 531.260367 217.919548 
L 537.25768 219.150478 
L 543.254993 220.872122 
L 546.25365 221.916453 
L 549.252306 222.835764 
L 552.250963 224.224599 
L 555.249619 225.481804 
L 558.248276 226.206858 
L 561.246932 226.595785 
L 564.245589 228.14598 
L 567.244245 230.351605 
L 570.242902 233.052853 
L 573.241558 236.129931 
L 576.240215 239.812395 
L 579.238871 241.352117 
L 582.237528 240.977531 
L 585.236185 240.231275 
L 591.233498 233.544192 
L 594.232154 232.68049 
L 597.230811 237.972884 
L 600.229467 239.611557 
L 603.228124 236.917163 
L 606.22678 231.192684 
L 609.225437 229.901772 
L 612.224093 233.075251 
L 615.22275 234.200058 
L 618.221406 233.341218 
L 621.220063 230.743701 
L 624.218719 229.899419 
L 627.217376 229.610959 
L 630.216032 229.521882 
L 633.214689 229.683778 
L 636.213345 229.410386 
L 639.212002 229.435348 
L 645.209315 230.589461 
L 651.206628 230.830323 
L 654.205284 230.85589 
L 657.203941 231.411786 
L 660.202597 230.888387 
L 663.201254 230.872835 
L 666.19991 231.217721 
L 672.197223 232.5189 
L 675.19588 233.335139 
L 678.194536 233.821963 
L 681.193193 234.174681 
L 687.190506 235.251345 
L 690.189163 235.110501 
L 693.187819 236.028193 
L 696.186476 235.615066 
L 699.185132 236.517125 
L 702.183789 237.272751 
L 705.182445 236.815955 
L 708.181102 237.774105 
L 711.179758 238.095756 
L 714.178415 238.151847 
L 717.177071 237.983172 
L 720.175728 238.93763 
L 723.174384 239.370742 
L 726.173041 238.860881 
L 729.171697 239.430091 
L 732.170354 240.524822 
L 735.16901 239.812449 
L 741.166323 241.309932 
L 744.16498 241.866997 
L 747.163636 241.690325 
L 747.163636 241.690325 
" style="fill:none;stroke:#9467bd;stroke-linecap:square;stroke-width:1.5;"/>
   </g>
   <g id="line2d_23">
    <path clip-path="url(#padce678f9d)" d="M 138.436364 232.878933 
L 141.43502 230.595111 
L 144.433677 226.714047 
L 147.432333 217.865308 
L 150.43099 212.356729 
L 153.429646 211.689487 
L 156.428303 213.935442 
L 159.426959 212.239275 
L 162.425616 209.328931 
L 165.424272 209.467933 
L 168.422929 210.802019 
L 171.421585 211.695968 
L 174.420242 213.970576 
L 177.418898 214.208421 
L 180.417555 214.016914 
L 183.416211 212.987088 
L 186.414868 207.831037 
L 189.413524 204.313685 
L 192.412181 203.035829 
L 195.410837 203.730544 
L 198.409494 207.11995 
L 201.40815 211.019421 
L 204.406807 213.766234 
L 207.405464 215.397227 
L 210.40412 216.420437 
L 213.402777 218.669178 
L 216.401433 220.184121 
L 219.40009 220.761299 
L 225.397403 224.039477 
L 231.394716 224.788499 
L 234.393372 224.29232 
L 240.390685 225.343026 
L 243.389342 220.892234 
L 246.387998 206.770838 
L 249.386655 189.218752 
L 252.385311 172.549372 
L 258.382624 101.704435 
L 261.381281 84.382879 
L 264.379937 144.695812 
L 267.378594 92.562619 
L 270.37725 79.615046 
L 273.375907 85.276964 
L 276.374563 88.331723 
L 279.37322 94.575588 
L 282.371876 117.582141 
L 285.370533 112.05704 
L 288.369189 101.928642 
L 291.367846 100.866881 
L 294.366502 104.709446 
L 297.365159 106.688679 
L 300.363815 106.455002 
L 303.362472 109.426983 
L 306.361129 130.876558 
L 309.359785 141.677237 
L 312.358442 149.182976 
L 315.357098 147.421994 
L 318.355755 199.489411 
L 321.354411 198.061138 
L 324.353068 196.275259 
L 327.351724 184.305098 
L 330.350381 165.687999 
L 333.349037 158.625198 
L 336.347694 149.686935 
L 339.34635 149.276187 
L 342.345007 148.612264 
L 345.343663 147.601153 
L 348.34232 147.242346 
L 351.340976 147.399501 
L 354.339633 148.185083 
L 357.338289 150.70802 
L 360.336946 153.501457 
L 363.335602 155.024248 
L 366.334259 159.702235 
L 369.332915 168.936488 
L 372.331572 181.270511 
L 375.330228 212.341746 
L 378.328885 225.377641 
L 381.327541 220.114305 
L 384.326198 221.552845 
L 387.324854 215.307516 
L 390.323511 202.465635 
L 393.322167 198.533141 
L 396.320824 200.134633 
L 399.319481 198.107379 
L 402.318137 200.010119 
L 405.316794 198.103234 
L 408.31545 196.029603 
L 411.314107 194.410154 
L 414.312763 194.272782 
L 417.31142 195.581701 
L 420.310076 201.213412 
L 423.308733 204.713648 
L 426.307389 197.995708 
L 429.306046 204.479175 
L 432.304702 201.529711 
L 435.303359 199.714729 
L 438.302015 201.674998 
L 441.300672 207.131591 
L 447.297985 219.246672 
L 450.296641 226.369292 
L 453.295298 234.167041 
L 456.293954 241.568168 
L 459.292611 241.885796 
L 462.291267 241.635206 
L 465.289924 241.531728 
L 468.28858 241.31374 
L 471.287237 240.604538 
L 477.28455 240.633085 
L 480.283206 239.815207 
L 483.281863 238.144275 
L 492.277833 234.759953 
L 498.275146 233.282457 
L 501.273802 232.748389 
L 504.272459 232.560232 
L 507.271115 232.925205 
L 510.269772 232.097804 
L 513.268428 231.663248 
L 516.267085 231.93655 
L 522.264398 230.787076 
L 525.263054 230.893189 
L 528.261711 231.150231 
L 531.260367 230.984665 
L 540.256337 231.621107 
L 543.254993 231.994357 
L 549.252306 232.98561 
L 558.248276 235.07146 
L 561.246932 235.495967 
L 564.245589 236.370262 
L 570.242902 238.580115 
L 573.241558 239.825219 
L 576.240215 241.256842 
L 579.238871 241.835544 
L 582.237528 242.017618 
L 585.236185 241.930054 
L 591.233498 241.116961 
L 594.232154 240.97778 
L 597.230811 241.621604 
L 600.229467 241.812052 
L 603.228124 241.425975 
L 606.22678 240.547301 
L 609.225437 240.252498 
L 612.224093 240.659656 
L 615.22275 240.746205 
L 618.221406 240.495923 
L 621.220063 239.878182 
L 627.217376 239.358135 
L 639.212002 238.792906 
L 648.207971 238.910879 
L 654.205284 238.858899 
L 657.203941 239.003654 
L 660.202597 238.844878 
L 663.201254 238.836616 
L 669.198567 239.105216 
L 687.190506 240.25638 
L 690.189163 240.265716 
L 693.187819 240.596712 
L 696.186476 240.570966 
L 702.183789 241.064629 
L 705.182445 241.017817 
L 708.181102 241.267484 
L 714.178415 241.411562 
L 717.177071 241.408108 
L 723.174384 241.698255 
L 726.173041 241.613643 
L 732.170354 241.881973 
L 735.16901 241.781732 
L 744.16498 242.116364 
L 747.163636 242.093036 
L 747.163636 242.093036 
" style="fill:none;stroke:#8c564b;stroke-linecap:square;stroke-width:1.5;"/>
   </g>
   <g id="line2d_24">
    <path clip-path="url(#padce678f9d)" d="M 138.436364 233.924157 
L 141.43502 231.449896 
L 144.433677 226.929415 
L 147.432333 216.780439 
L 150.43099 210.538966 
L 153.429646 209.679474 
L 156.428303 211.725825 
L 159.426959 209.232765 
L 162.425616 205.344037 
L 165.424272 204.933369 
L 168.422929 205.791685 
L 171.421585 206.162924 
L 174.420242 208.379334 
L 177.418898 208.039644 
L 180.417555 207.820852 
L 183.416211 208.15554 
L 186.414868 205.203626 
L 189.413524 203.240659 
L 192.412181 202.056426 
L 195.410837 201.794975 
L 204.406807 204.28763 
L 207.405464 204.713021 
L 210.40412 204.404548 
L 213.402777 205.501107 
L 216.401433 206.317963 
L 219.40009 206.001267 
L 222.398746 207.079538 
L 225.397403 208.633501 
L 228.396059 208.089695 
L 231.394716 208.453294 
L 234.393372 208.165402 
L 237.392029 208.571412 
L 240.390685 209.642007 
L 243.389342 205.240404 
L 246.387998 194.535193 
L 249.386655 186.60221 
L 252.385311 185.908749 
L 255.383968 174.036642 
L 258.382624 162.625467 
L 261.381281 158.031739 
L 264.379937 190.497034 
L 267.378594 162.662495 
L 270.37725 154.600332 
L 273.375907 156.424385 
L 276.374563 156.904296 
L 279.37322 159.089786 
L 282.371876 170.927622 
L 285.370533 166.70366 
L 288.369189 159.903967 
L 291.367846 158.266858 
L 294.366502 159.655825 
L 297.365159 159.951298 
L 300.363815 158.940629 
L 303.362472 159.89307 
L 306.361129 172.485459 
L 309.359785 178.564015 
L 312.358442 182.683548 
L 315.357098 180.895167 
L 318.355755 213.829951 
L 321.354411 212.181518 
L 324.353068 209.994792 
L 327.351724 200.653747 
L 330.350381 187.064438 
L 333.349037 181.796618 
L 336.347694 175.394154 
L 342.345007 175.143076 
L 345.343663 174.873971 
L 348.34232 175.084884 
L 351.340976 175.572495 
L 354.339633 176.382921 
L 360.336946 180.075555 
L 363.335602 180.875608 
L 366.334259 183.763079 
L 369.332915 189.857665 
L 372.331572 198.210251 
L 375.330228 220.358923 
L 378.328885 229.648075 
L 381.327541 225.145633 
L 384.326198 225.502434 
L 387.324854 219.602909 
L 390.323511 208.449384 
L 393.322167 204.914879 
L 396.320824 206.060183 
L 399.319481 204.118641 
L 402.318137 205.739993 
L 405.316794 204.073854 
L 408.31545 202.255872 
L 411.314107 200.826954 
L 414.312763 200.7447 
L 417.31142 201.919806 
L 420.310076 206.761119 
L 423.308733 209.519064 
L 426.307389 203.857926 
L 429.306046 209.422883 
L 432.304702 206.694371 
L 435.303359 204.774647 
L 438.302015 205.968576 
L 441.300672 210.168927 
L 447.297985 219.856316 
L 450.296641 226.106808 
L 456.293954 241.520111 
L 459.292611 241.64669 
L 462.291267 241.049481 
L 465.289924 240.798974 
L 468.28858 240.189942 
L 471.287237 238.406932 
L 474.285893 238.581305 
L 477.28455 238.628386 
L 480.283206 236.942841 
L 483.281863 233.648659 
L 489.279176 229.871786 
L 492.277833 228.638619 
L 495.276489 227.936887 
L 498.275146 227.448753 
L 501.273802 227.220527 
L 504.272459 227.487825 
L 507.271115 228.514369 
L 510.269772 227.718975 
L 513.268428 227.457535 
L 516.267085 228.118781 
L 522.264398 227.044051 
L 525.263054 227.372464 
L 528.261711 227.890792 
L 531.260367 227.85367 
L 540.256337 228.960841 
L 543.254993 229.480714 
L 552.250963 231.575583 
L 555.249619 232.336172 
L 558.248276 232.85475 
L 561.246932 233.187785 
L 564.245589 234.159323 
L 567.244245 235.460414 
L 570.242902 237.018952 
L 573.241558 238.759539 
L 576.240215 240.839638 
L 579.238871 241.697371 
L 582.237528 241.601213 
L 585.236185 241.261107 
L 591.233498 238.10452 
L 594.232154 237.693353 
L 597.230811 240.188623 
L 600.229467 240.958493 
L 603.228124 239.672291 
L 606.22678 236.913549 
L 609.225437 236.220409 
L 612.224093 237.700958 
L 615.22275 238.188771 
L 618.221406 237.714968 
L 621.220063 236.349019 
L 624.218719 235.859995 
L 630.216032 235.534125 
L 633.214689 235.573268 
L 636.213345 235.374048 
L 639.212002 235.347418 
L 645.209315 235.900231 
L 654.205284 236.026762 
L 657.203941 236.352727 
L 660.202597 236.091489 
L 663.201254 236.054259 
L 666.19991 236.226326 
L 672.197223 236.904459 
L 675.19588 237.336017 
L 687.190506 238.451601 
L 690.189163 238.377747 
L 693.187819 238.922753 
L 696.186476 238.753194 
L 702.183789 239.650521 
L 705.182445 239.440464 
L 708.181102 239.954075 
L 711.179758 240.135042 
L 714.178415 240.179212 
L 717.177071 240.101781 
L 720.175728 240.579113 
L 723.174384 240.785011 
L 726.173041 240.541313 
L 729.171697 240.818332 
L 732.170354 241.352381 
L 735.16901 241.008069 
L 741.166323 241.752734 
L 744.16498 242.021684 
L 747.163636 241.932941 
L 747.163636 241.932941 
" style="fill:none;stroke:#e377c2;stroke-linecap:square;stroke-width:1.5;"/>
   </g>
   <g id="patch_3">
    <path d="M 108 252 
L 108 34.56 
" style="fill:none;stroke:#000000;stroke-linecap:square;stroke-linejoin:miter;stroke-width:0.8;"/>
   </g>
   <g id="patch_4">
    <path d="M 777.6 252 
L 777.6 34.56 
" style="fill:none;stroke:#000000;stroke-linecap:square;stroke-linejoin:miter;stroke-width:0.8;"/>
   </g>
   <g id="patch_5">
    <path d="M 108 252 
L 777.6 252 
" style="fill:none;stroke:#000000;stroke-linecap:square;stroke-linejoin:miter;stroke-width:0.8;"/>
   </g>
   <g id="patch_6">
    <path d="M 108 34.56 
L 777.6 34.56 
" style="fill:none;stroke:#000000;stroke-linecap:square;stroke-linejoin:miter;stroke-width:0.8;"/>
   </g>
   <g id="text_20">
    <!-- 7 Endmembers spectral signatures of Salinas HSI -->
    <g transform="translate(294.8925 28.56)scale(0.12 -0.12)">
     <defs>
      <path d="M 628 4666 
L 3578 4666 
L 3578 4134 
L 1259 4134 
L 1259 2753 
L 3481 2753 
L 3481 2222 
L 1259 2222 
L 1259 531 
L 3634 531 
L 3634 0 
L 628 0 
L 628 4666 
z
" id="DejaVuSans-45" transform="scale(0.015625)"/>
      <path d="M 3328 2828 
Q 3544 3216 3844 3400 
Q 4144 3584 4550 3584 
Q 5097 3584 5394 3201 
Q 5691 2819 5691 2113 
L 5691 0 
L 5113 0 
L 5113 2094 
Q 5113 2597 4934 2840 
Q 4756 3084 4391 3084 
Q 3944 3084 3684 2787 
Q 3425 2491 3425 1978 
L 3425 0 
L 2847 0 
L 2847 2094 
Q 2847 2600 2669 2842 
Q 2491 3084 2119 3084 
Q 1678 3084 1418 2786 
Q 1159 2488 1159 1978 
L 1159 0 
L 581 0 
L 581 3500 
L 1159 3500 
L 1159 2956 
Q 1356 3278 1631 3431 
Q 1906 3584 2284 3584 
Q 2666 3584 2933 3390 
Q 3200 3197 3328 2828 
z
" id="DejaVuSans-6d" transform="scale(0.015625)"/>
      <path d="M 2906 1791 
Q 2906 2416 2648 2759 
Q 2391 3103 1925 3103 
Q 1463 3103 1205 2759 
Q 947 2416 947 1791 
Q 947 1169 1205 825 
Q 1463 481 1925 481 
Q 2391 481 2648 825 
Q 2906 1169 2906 1791 
z
M 3481 434 
Q 3481 -459 3084 -895 
Q 2688 -1331 1869 -1331 
Q 1566 -1331 1297 -1286 
Q 1028 -1241 775 -1147 
L 775 -588 
Q 1028 -725 1275 -790 
Q 1522 -856 1778 -856 
Q 2344 -856 2625 -561 
Q 2906 -266 2906 331 
L 2906 616 
Q 2728 306 2450 153 
Q 2172 0 1784 0 
Q 1141 0 747 490 
Q 353 981 353 1791 
Q 353 2603 747 3093 
Q 1141 3584 1784 3584 
Q 2172 3584 2450 3431 
Q 2728 3278 2906 2969 
L 2906 3500 
L 3481 3500 
L 3481 434 
z
" id="DejaVuSans-67" transform="scale(0.015625)"/>
      <path d="M 1959 3097 
Q 1497 3097 1228 2736 
Q 959 2375 959 1747 
Q 959 1119 1226 758 
Q 1494 397 1959 397 
Q 2419 397 2687 759 
Q 2956 1122 2956 1747 
Q 2956 2369 2687 2733 
Q 2419 3097 1959 3097 
z
M 1959 3584 
Q 2709 3584 3137 3096 
Q 3566 2609 3566 1747 
Q 3566 888 3137 398 
Q 2709 -91 1959 -91 
Q 1206 -91 779 398 
Q 353 888 353 1747 
Q 353 2609 779 3096 
Q 1206 3584 1959 3584 
z
" id="DejaVuSans-6f" transform="scale(0.015625)"/>
      <path d="M 2375 4863 
L 2375 4384 
L 1825 4384 
Q 1516 4384 1395 4259 
Q 1275 4134 1275 3809 
L 1275 3500 
L 2222 3500 
L 2222 3053 
L 1275 3053 
L 1275 0 
L 697 0 
L 697 3053 
L 147 3053 
L 147 3500 
L 697 3500 
L 697 3744 
Q 697 4328 969 4595 
Q 1241 4863 1831 4863 
L 2375 4863 
z
" id="DejaVuSans-66" transform="scale(0.015625)"/>
      <path d="M 628 4666 
L 1259 4666 
L 1259 2753 
L 3553 2753 
L 3553 4666 
L 4184 4666 
L 4184 0 
L 3553 0 
L 3553 2222 
L 1259 2222 
L 1259 0 
L 628 0 
L 628 4666 
z
" id="DejaVuSans-48" transform="scale(0.015625)"/>
      <path d="M 628 4666 
L 1259 4666 
L 1259 0 
L 628 0 
L 628 4666 
z
" id="DejaVuSans-49" transform="scale(0.015625)"/>
     </defs>
     <use xlink:href="#DejaVuSans-37"/>
     <use x="63.623047" xlink:href="#DejaVuSans-20"/>
     <use x="95.410156" xlink:href="#DejaVuSans-45"/>
     <use x="158.59375" xlink:href="#DejaVuSans-6e"/>
     <use x="221.972656" xlink:href="#DejaVuSans-64"/>
     <use x="285.449219" xlink:href="#DejaVuSans-6d"/>
     <use x="382.861328" xlink:href="#DejaVuSans-65"/>
     <use x="444.384766" xlink:href="#DejaVuSans-6d"/>
     <use x="541.796875" xlink:href="#DejaVuSans-62"/>
     <use x="605.273438" xlink:href="#DejaVuSans-65"/>
     <use x="666.796875" xlink:href="#DejaVuSans-72"/>
     <use x="707.910156" xlink:href="#DejaVuSans-73"/>
     <use x="760.009766" xlink:href="#DejaVuSans-20"/>
     <use x="791.796875" xlink:href="#DejaVuSans-73"/>
     <use x="843.896484" xlink:href="#DejaVuSans-70"/>
     <use x="907.373047" xlink:href="#DejaVuSans-65"/>
     <use x="968.896484" xlink:href="#DejaVuSans-63"/>
     <use x="1023.876953" xlink:href="#DejaVuSans-74"/>
     <use x="1063.085938" xlink:href="#DejaVuSans-72"/>
     <use x="1104.199219" xlink:href="#DejaVuSans-61"/>
     <use x="1165.478516" xlink:href="#DejaVuSans-6c"/>
     <use x="1193.261719" xlink:href="#DejaVuSans-20"/>
     <use x="1225.048828" xlink:href="#DejaVuSans-73"/>
     <use x="1277.148438" xlink:href="#DejaVuSans-69"/>
     <use x="1304.931641" xlink:href="#DejaVuSans-67"/>
     <use x="1368.408203" xlink:href="#DejaVuSans-6e"/>
     <use x="1431.787109" xlink:href="#DejaVuSans-61"/>
     <use x="1493.066406" xlink:href="#DejaVuSans-74"/>
     <use x="1532.275391" xlink:href="#DejaVuSans-75"/>
     <use x="1595.654297" xlink:href="#DejaVuSans-72"/>
     <use x="1634.517578" xlink:href="#DejaVuSans-65"/>
     <use x="1696.041016" xlink:href="#DejaVuSans-73"/>
     <use x="1748.140625" xlink:href="#DejaVuSans-20"/>
     <use x="1779.927734" xlink:href="#DejaVuSans-6f"/>
     <use x="1841.109375" xlink:href="#DejaVuSans-66"/>
     <use x="1876.314453" xlink:href="#DejaVuSans-20"/>
     <use x="1908.101562" xlink:href="#DejaVuSans-53"/>
     <use x="1971.578125" xlink:href="#DejaVuSans-61"/>
     <use x="2032.857422" xlink:href="#DejaVuSans-6c"/>
     <use x="2060.640625" xlink:href="#DejaVuSans-69"/>
     <use x="2088.423828" xlink:href="#DejaVuSans-6e"/>
     <use x="2151.802734" xlink:href="#DejaVuSans-61"/>
     <use x="2213.082031" xlink:href="#DejaVuSans-73"/>
     <use x="2265.181641" xlink:href="#DejaVuSans-20"/>
     <use x="2296.96875" xlink:href="#DejaVuSans-48"/>
     <use x="2372.164062" xlink:href="#DejaVuSans-53"/>
     <use x="2435.640625" xlink:href="#DejaVuSans-49"/>
    </g>
   </g>
  </g>
 </g>
 <defs>
  <clipPath id="padce678f9d">
   <rect height="217.44" width="669.6" x="108" y="34.56"/>
  </clipPath>
 </defs>
</svg>
